<?xml version="1.0" encoding="UTF-8" standalone="no"?>
<svg
   xmlns:svg="http://www.w3.org/2000/svg"
   xmlns="http://www.w3.org/2000/svg"
   xmlns:inkscape="http://www.inkscape.org/namespaces/inkscape"
   width="120px"
   height="380px">
  <g
     inkscape:label="Background"
     inkscape:groupmode="layer"
     id="background">
    <rect
       x="0"
       y="0"
       width="120"
       height="380"
       style="fill:#333333;stroke:none;"
       id="rect4255" />
    <path
       style="fill:#555555;fill-rule:nonzero;stroke:none"
       d="m 0 380 v -380 h 120 l -1 1 h -118 v 378 z"
       id="path4656" />
    <path
       style="fill:#111111;fill-rule:nonzero;stroke:none"
       d="m 0 380 h 120 v -380 l -1 1 v 378 h -118 z"
       id="path4658" />
  </g>
  <g
     inkscape:label="Logo"
     inkscape:groupmode="layer"
     id="logo"
     fill="#777777"
     font-family="DejaVu Sans"
     font-size="12">
    <path
       d="M 6 346
          a 9 9 0 0 1 0 18
          v 0 -6
          a 3.6 3.6 0 0 0 0 -6
          z
          m 12 0 
          h 87
          a 9 9 0 0 1 0 18
          h -87
          a 9 9 0 0 1 0 -18
          z
          m 3 9
          a 24 24 0 0 0 18 0
          a 24 24 0 0 0 -18 0
          z
       "/>
       id="path4136"
       inkscape:connector-curvature="0" />
    <text
       x="60" y="377" id="text4662" text-anchor="middle">Torpedo</text>
    <text x="60" y="12" text-anchor="middle">Store Demo</text>
  </g>
  <g
     inkscape:label="Screen"
     inkscape:groupmode="layer"
     id="screen"
     stroke="#ffffff"
     fill="none"
     stroke-linecap="round">
    <line x1="16" y1="42.5" x2="104" y2="42.5" />
    <line x1="16" y1="72.5" x2="104" y2="72.5" />
    <line x1="16" y1="102.5" x2="104" y2="102.5" />
    <line x1="16" y1="132.5" x2="104" y2="132.5" />
    <line x1="16" y1="162.5" x2="104" y2="162.5" />
    <line x1="16" y1="192.5" x2="104" y2="192.5" />
    <line x1="16" y1="222.5" x2="104" y2="222.5" />
    <line x1="16" y1="252.5" x2="104" y2="252.5" />
    <line x1="16" y1="282.5" x2="104" y2="282.5" />
    <line x1="16" y1="312.5" x2="104" y2="312.5" />
  </g>
  <g
     inkscape:label="Group"
     inkscape:groupmode="layer"
     id="group1"
     font-family="DejaVu Sans"
     font-size="10"
     stroke="none"
     fill="#ffffff">
    <text x="16" y="28" text-anchor="middle">IN</text>
    <text x="104" y="28" text-anchor="middle">OUT</text>
    <text x="42" y="28" text-anchor="middle">DATA</text>
    <text x="76" y="28" text-anchor="middle">SEND</text>
  </g>
</svg>
