<?xml version="1.0" encoding="UTF-8" standalone="no"?>
<svg
   xmlns:dc="http://purl.org/dc/elements/1.1/"
   xmlns:cc="http://creativecommons.org/ns#"
   xmlns:rdf="http://www.w3.org/1999/02/22-rdf-syntax-ns#"
   xmlns:svg="http://www.w3.org/2000/svg"
   xmlns="http://www.w3.org/2000/svg"
   version="1.1"
   id="svg2"
   height="380px"
   width="240px">
  <metadata
     id="metadata23">
    <rdf:RDF>
      <cc:Work
         rdf:about="">
        <dc:format>image/svg+xml</dc:format>
        <dc:type
           rdf:resource="http://purl.org/dc/dcmitype/StillImage" />
      </cc:Work>
    </rdf:RDF>
  </metadata>
  <defs
     id="defs21" />
  <g
     id="background">
    <path
       id="rect4255"
       d="m 0,0 240,0 0,380 -240,0 z"
       style="fill:#333333;stroke:none" />
    <path
       id="path4656"
       d="M 0,380 0,0 240,0 239,1 1,1 1,379 Z"
       style="fill:#555555;fill-rule:nonzero;stroke:none" />
    <path
       id="path4658"
       d="m 0,380 240,0 0,-380 -1,1 0,378 -238,0 z"
       style="fill:#111111;fill-rule:nonzero;stroke:none" />
  </g>
  <g
     style="font-size:12px;font-family:'DejaVu Sans';fill:#777777"
     font-size="12"
     id="logo"><path
   id="path9"
   d="m 66,346 a 9,9 0 0 1 0,18 l 0,0 0,-6 a 3.6,3.6 0 0 0 0,-6 z m 12,0 87,0 a 9,9 0 0 1 0,18 l -87,0 a 9,9 0 0 1 0,-18 z m 3,9 a 24,24 0 0 0 18,0 24,24 0 0 0 -18,0 z" />

       id=&quot;path4136&quot;
       inkscape:connector-curvature=&quot;0&quot; /&gt;
    <g
   id="text4662"
   style="text-anchor:middle">
  <path
     id="path27"
     style="text-anchor:middle"
     d="m 96.199219,368.25195 7.400391,0 0,0.9961 -3.10547,0 0,7.75195 -1.189453,0 0,-7.75195 -3.105468,0 0,-0.9961 z" />
  <path
     id="path29"
     style="text-anchor:middle"
     d="m 105.20508,371.19336 q -0.86719,0 -1.3711,0.67969 -0.5039,0.67382 -0.5039,1.85156 0,1.17773 0.49805,1.85742 0.5039,0.67383 1.37695,0.67383 0.86133,0 1.36523,-0.67969 0.50391,-0.67969 0.50391,-1.85156 0,-1.16602 -0.50391,-1.8457 -0.5039,-0.68555 -1.36523,-0.68555 z m 0,-0.91406 q 1.40625,0 2.20898,0.91406 0.80274,0.91406 0.80274,2.53125 0,1.61133 -0.80274,2.53125 -0.80273,0.91406 -2.20898,0.91406 -1.41211,0 -2.21485,-0.91406 -0.79687,-0.91992 -0.79687,-2.53125 0,-1.61719 0.79687,-2.53125 0.80274,-0.91406 2.21485,-0.91406 z" />
  <path
     id="path31"
     style="text-anchor:middle"
     d="m 113.80078,371.44531 q -0.18164,-0.10547 -0.39844,-0.15234 -0.21093,-0.0527 -0.46875,-0.0527 -0.91406,0 -1.40625,0.59766 -0.48632,0.5918 -0.48632,1.70508 l 0,3.45703 -1.08399,0 0,-6.5625 1.08399,0 0,1.01953 q 0.33984,-0.59766 0.88476,-0.88476 0.54492,-0.29297 1.32422,-0.29297 0.11133,0 0.24609,0.0176 0.13477,0.0117 0.29883,0.041 l 0.006,1.10742 z" />
  <path
     id="path33"
     style="text-anchor:middle"
     d="m 115.98633,376.01562 0,3.48047 -1.08399,0 0,-9.05859 1.08399,0 0,0.99609 q 0.33984,-0.58593 0.85547,-0.86718 0.52148,-0.28711 1.24218,-0.28711 1.19532,0 1.93946,0.94922 0.75,0.94921 0.75,2.49609 0,1.54687 -0.75,2.49609 -0.74414,0.94922 -1.93946,0.94922 -0.7207,0 -1.24218,-0.28125 -0.51563,-0.28711 -0.85547,-0.87305 z m 3.66797,-2.29101 q 0,-1.18945 -0.49219,-1.86328 -0.48633,-0.67969 -1.3418,-0.67969 -0.85547,0 -1.34765,0.67969 -0.48633,0.67383 -0.48633,1.86328 0,1.18945 0.48633,1.86914 0.49218,0.67383 1.34765,0.67383 0.85547,0 1.3418,-0.67383 0.49219,-0.67969 0.49219,-1.86914 z" />
  <path
     id="path35"
     style="text-anchor:middle"
     d="m 128.17383,373.44922 0,0.52734 -4.95703,0 q 0.0703,1.11328 0.66797,1.69922 0.60351,0.58008 1.67578,0.58008 0.62109,0 1.20117,-0.15234 0.58594,-0.15235 1.16016,-0.45704 l 0,1.01954 q -0.58008,0.24609 -1.18946,0.375 -0.60937,0.1289 -1.23633,0.1289 -1.57031,0 -2.49023,-0.91406 -0.91406,-0.91406 -0.91406,-2.47266 0,-1.61133 0.86718,-2.55468 0.87305,-0.94922 2.34961,-0.94922 1.32422,0 2.0918,0.85547 0.77344,0.8496 0.77344,2.31445 z m -1.07813,-0.31641 q -0.0117,-0.88476 -0.49804,-1.41211 -0.48047,-0.52734 -1.27735,-0.52734 -0.90234,0 -1.44726,0.50976 -0.53907,0.50977 -0.6211,1.43555 l 3.84375,-0.006 z" />
  <path
     id="path37"
     style="text-anchor:middle"
     d="m 134.26172,371.43359 0,-3.55078 1.07812,0 0,9.11719 -1.07812,0 0,-0.98438 q -0.33985,0.58594 -0.86133,0.87305 -0.51562,0.28125 -1.24219,0.28125 -1.18945,0 -1.93945,-0.94922 -0.74414,-0.94922 -0.74414,-2.49609 0,-1.54688 0.74414,-2.49609 0.75,-0.94922 1.93945,-0.94922 0.72657,0 1.24219,0.28711 0.52148,0.28125 0.86133,0.86718 z m -3.67383,2.29102 q 0,1.18945 0.48633,1.86914 0.49219,0.67383 1.34765,0.67383 0.85547,0 1.34766,-0.67383 0.49219,-0.67969 0.49219,-1.86914 0,-1.18945 -0.49219,-1.86328 -0.49219,-0.67969 -1.34766,-0.67969 -0.85546,0 -1.34765,0.67969 -0.48633,0.67383 -0.48633,1.86328 z" />
  <path
     id="path39"
     style="text-anchor:middle"
     d="m 140.10352,371.19336 q -0.86719,0 -1.3711,0.67969 -0.5039,0.67382 -0.5039,1.85156 0,1.17773 0.49804,1.85742 0.50391,0.67383 1.37696,0.67383 0.86132,0 1.36523,-0.67969 0.50391,-0.67969 0.50391,-1.85156 0,-1.16602 -0.50391,-1.8457 -0.50391,-0.68555 -1.36523,-0.68555 z m 0,-0.91406 q 1.40625,0 2.20898,0.91406 0.80273,0.91406 0.80273,2.53125 0,1.61133 -0.80273,2.53125 -0.80273,0.91406 -2.20898,0.91406 -1.41211,0 -2.21485,-0.91406 -0.79687,-0.91992 -0.79687,-2.53125 0,-1.61719 0.79687,-2.53125 0.80274,-0.91406 2.21485,-0.91406 z" />
</g>
<g
   id="text12"
   style="text-anchor:middle">
  <path
     id="path42"
     style="text-anchor:middle"
     d="m 84.111328,3.2519531 1.59375,0 3.878906,7.3183599 0,-7.3183599 1.148438,0 0,8.7480469 -1.59375,0 -3.878906,-7.3183594 0,7.3183594 -1.148438,0 0,-8.7480469 z" />
  <path
     id="path44"
     style="text-anchor:middle"
     d="m 95.583984,6.1933594 q -0.867187,0 -1.371093,0.6796875 -0.503907,0.6738281 -0.503907,1.8515625 0,1.1777344 0.498047,1.8574216 0.503906,0.673828 1.376953,0.673828 0.861328,0 1.365235,-0.679687 0.503906,-0.6796876 0.503906,-1.8515626 0,-1.1660157 -0.503906,-1.8457032 -0.503907,-0.6855468 -1.365235,-0.6855468 z m 0,-0.9140625 q 1.40625,0 2.208985,0.9140625 0.802734,0.9140625 0.802734,2.53125 0,1.6113286 -0.802734,2.5312496 -0.802735,0.914063 -2.208985,0.914063 -1.412109,0 -2.214843,-0.914063 -0.796875,-0.919921 -0.796875,-2.5312496 0,-1.6171875 0.796875,-2.53125 0.802734,-0.9140625 2.214843,-0.9140625 z" />
  <path
     id="path46"
     style="text-anchor:middle"
     d="m 101.44336,3.5742188 0,1.8632812 2.2207,0 0,0.8378906 -2.2207,0 0,3.5625 q 0,0.8027344 0.2168,1.0312504 0.22265,0.228515 0.89648,0.228515 l 1.10742,0 0,0.902344 -1.10742,0 q -1.24805,0 -1.72266,-0.462891 -0.4746,-0.46875 -0.4746,-1.6992184 l 0,-3.5625 -0.791021,0 0,-0.8378906 0.791021,0 0,-1.8632812 1.08398,0 z" />
  <path
     id="path48"
     style="text-anchor:middle"
     d="m 110.70117,8.4492188 0,0.5273437 -4.95703,0 q 0.0703,1.1132815 0.66797,1.6992185 0.60352,0.580078 1.67578,0.580078 0.62109,0 1.20117,-0.152343 0.58594,-0.152344 1.16016,-0.457032 l 0,1.019532 q -0.58008,0.246093 -1.18945,0.375 -0.60938,0.128906 -1.23633,0.128906 -1.57031,0 -2.49024,-0.914063 -0.91406,-0.914062 -0.91406,-2.4726559 0,-1.6113281 0.86719,-2.5546875 0.87305,-0.9492187 2.34961,-0.9492187 1.32422,0 2.09179,0.8554687 0.77344,0.8496094 0.77344,2.3144532 z m -1.07812,-0.3164063 q -0.0117,-0.8847656 -0.49805,-1.4121094 -0.48047,-0.5273437 -1.27734,-0.5273437 -0.90235,0 -1.44727,0.5097656 -0.53906,0.5097656 -0.62109,1.4355469 l 3.84375,-0.00586 z" />
  <path
     id="path50"
     style="text-anchor:middle"
     d="m 116.6543,5.6308594 0,1.0195312 q -0.45703,-0.234375 -0.94922,-0.3515625 -0.49219,-0.1171875 -1.01953,-0.1171875 -0.80274,0 -1.20703,0.2460938 -0.39844,0.2460937 -0.39844,0.7382812 0,0.375 0.28711,0.5917969 0.28711,0.2109375 1.15429,0.4042969 l 0.36915,0.082031 q 1.14843,0.2460938 1.6289,0.6972657 0.48633,0.4453125 0.48633,1.2480467 0,0.914063 -0.72656,1.447266 -0.72071,0.533203 -1.98633,0.533203 -0.52734,0 -1.10156,-0.105469 -0.56836,-0.09961 -1.20118,-0.304687 l 0,-1.113282 q 0.59766,0.310547 1.17774,0.46875 0.58008,0.152344 1.14844,0.152344 0.76172,0 1.17187,-0.257812 0.41016,-0.263672 0.41016,-0.738282 0,-0.4394527 -0.29883,-0.6738277 -0.29297,-0.234375 -1.29492,-0.4511719 l -0.375,-0.087891 q -1.00196,-0.2109375 -1.44727,-0.6445313 -0.44531,-0.4394531 -0.44531,-1.2011719 0,-0.9257812 0.65625,-1.4296875 0.65625,-0.5039062 1.86328,-0.5039062 0.59766,0 1.125,0.087891 0.52734,0.087891 0.97266,0.2636719 z" />
  <path
     id="path52"
     style="text-anchor:middle"
     d="m 123.7793,4.2246094 0,6.8027346 1.42968,0 q 1.81055,0 2.64844,-0.820313 0.84375,-0.8203122 0.84375,-2.5898435 0,-1.7578125 -0.84375,-2.5722656 -0.83789,-0.8203125 -2.64844,-0.8203125 l -1.42968,0 z m -1.1836,-0.9726563 2.43164,0 q 2.54297,0 3.73243,1.0605469 1.18945,1.0546875 1.18945,3.3046875 0,2.2617188 -1.19531,3.3222655 Q 127.55859,12 125.02734,12 l -2.43164,0 0,-8.7480469 z" />
  <path
     id="path54"
     style="text-anchor:middle"
     d="m 137.39648,8.4492188 0,0.5273437 -4.95703,0 q 0.0703,1.1132815 0.66797,1.6992185 0.60352,0.580078 1.67578,0.580078 0.6211,0 1.20117,-0.152343 0.58594,-0.152344 1.16016,-0.457032 l 0,1.019532 q -0.58008,0.246093 -1.18945,0.375 -0.60938,0.128906 -1.23633,0.128906 -1.57031,0 -2.49023,-0.914063 -0.91407,-0.914062 -0.91407,-2.4726559 0,-1.6113281 0.86719,-2.5546875 0.87305,-0.9492187 2.34961,-0.9492187 1.32422,0 2.0918,0.8554687 0.77343,0.8496094 0.77343,2.3144532 z m -1.07812,-0.3164063 q -0.0117,-0.8847656 -0.49805,-1.4121094 -0.48047,-0.5273437 -1.27734,-0.5273437 -0.90235,0 -1.44727,0.5097656 -0.53906,0.5097656 -0.62109,1.4355469 l 3.84375,-0.00586 z" />
  <path
     id="path56"
     style="text-anchor:middle"
     d="m 144.27539,6.6972656 q 0.4043,-0.7265625 0.9668,-1.0722656 0.5625,-0.3457031 1.32422,-0.3457031 1.02539,0 1.58203,0.7207031 0.55664,0.7148437 0.55664,2.0390625 l 0,3.9609375 -1.08399,0 0,-3.9257812 q 0,-0.9433594 -0.33398,-1.4003907 -0.33399,-0.4570312 -1.01953,-0.4570312 -0.83789,0 -1.32422,0.5566406 -0.48633,0.5566406 -0.48633,1.5175781 l 0,3.7089844 -1.08398,0 0,-3.9257812 q 0,-0.9492188 -0.33399,-1.4003907 -0.33398,-0.4570312 -1.03125,-0.4570312 -0.82617,0 -1.3125,0.5625 -0.48633,0.5566406 -0.48633,1.5117187 l 0,3.7089844 -1.08398,0 0,-6.5625 1.08398,0 0,1.0195312 q 0.36914,-0.6035156 0.88477,-0.890625 0.51562,-0.2871093 1.22461,-0.2871093 0.71484,0 1.21289,0.3632812 0.50391,0.3632813 0.74414,1.0546875 z" />
  <path
     id="path58"
     style="text-anchor:middle"
     d="m 153.4043,6.1933594 q -0.86719,0 -1.3711,0.6796875 -0.5039,0.6738281 -0.5039,1.8515625 0,1.1777344 0.49804,1.8574216 0.50391,0.673828 1.37696,0.673828 0.86132,0 1.36523,-0.679687 0.50391,-0.6796876 0.50391,-1.8515626 0,-1.1660157 -0.50391,-1.8457032 -0.50391,-0.6855468 -1.36523,-0.6855468 z m 0,-0.9140625 q 1.40625,0 2.20898,0.9140625 0.80274,0.9140625 0.80274,2.53125 0,1.6113286 -0.80274,2.5312496 -0.80273,0.914063 -2.20898,0.914063 -1.41211,0 -2.21485,-0.914063 -0.79687,-0.919921 -0.79687,-2.5312496 0,-1.6171875 0.79687,-2.53125 0.80274,-0.9140625 2.21485,-0.9140625 z" />
</g>
</g>
  <g
     style="font-size:10px;font-family:'DejaVu Sans';fill:#ffffff;stroke:none"
     font-size="10"
     id="group1">
    <g
       id="text15"
       style="text-anchor:start">
      <path
         id="path61"
         style="text-anchor:start"
         d="m 35.851562,27.449219 0,0.961914 q -0.561523,-0.268555 -1.05957,-0.400391 -0.498047,-0.131836 -0.961914,-0.131836 -0.805664,0 -1.245117,0.3125 -0.43457,0.3125 -0.43457,0.888672 0,0.483399 0.288086,0.732422 0.292968,0.244141 1.103515,0.395508 l 0.595703,0.12207 q 1.103516,0.209961 1.625977,0.742188 0.527344,0.527343 0.527344,1.416015 0,1.059571 -0.712891,1.606446 -0.708008,0.546875 -2.080078,0.546875 -0.517578,0 -1.103516,-0.117188 -0.581054,-0.117187 -1.206054,-0.34668 l 0,-1.015625 q 0.600585,0.336914 1.176757,0.507813 0.576172,0.170898 1.132813,0.170898 0.844726,0 1.303711,-0.332031 0.458984,-0.332031 0.458984,-0.947266 0,-0.537109 -0.332031,-0.839843 -0.327149,-0.302735 -1.079102,-0.454102 l -0.600586,-0.117187 q -1.103515,-0.219727 -1.596679,-0.688477 -0.493164,-0.46875 -0.493164,-1.303711 0,-0.966797 0.678711,-1.523437 0.683593,-0.556641 1.879882,-0.556641 0.512696,0 1.044922,0.09277 0.532227,0.09277 1.088867,0.278321 z" />
      <path
         id="path63"
         style="text-anchor:start"
         d="m 36.828125,27.209961 1.05957,0 2.021485,2.998047 2.006836,-2.998047 1.05957,0 -2.578125,3.818359 0,3.47168 -0.991211,0 0,-3.47168 -2.578125,-3.818359 z" />
      <path
         id="path65"
         style="text-anchor:start"
         d="m 43.942383,27.209961 1.328125,0 3.232422,6.098633 0,-6.098633 0.957031,0 0,7.290039 -1.328125,0 -3.232422,-6.098633 0,6.098633 -0.957031,0 0,-7.290039 z" />
      <path
         id="path67"
         style="text-anchor:start"
         d="m 56.881836,27.771484 0,1.040039 q -0.498047,-0.463867 -1.064453,-0.693359 -0.561524,-0.229492 -1.196289,-0.229492 -1.25,0 -1.914063,0.766601 -0.664062,0.761719 -0.664062,2.207032 0,1.440429 0.664062,2.207031 0.664063,0.761719 1.914063,0.761719 0.634765,0 1.196289,-0.229493 0.566406,-0.229492 1.064453,-0.693359 l 0,1.030274 q -0.517578,0.351562 -1.098633,0.527343 -0.576172,0.175782 -1.220703,0.175782 -1.655273,0 -2.607422,-1.010743 -0.952148,-1.015625 -0.952148,-2.768554 0,-1.757813 0.952148,-2.768555 0.952149,-1.015625 2.607422,-1.015625 0.654297,0 1.230469,0.175781 0.581054,0.170899 1.088867,0.517578 z" />
      <path
         id="path69"
         style="text-anchor:start"
         d="m 61.598633,27.209961 0.986328,0 0,7.290039 -0.986328,0 0,-7.290039 z" />
      <path
         id="path71"
         style="text-anchor:start"
         d="m 64.547852,27.209961 1.328125,0 3.232421,6.098633 0,-6.098633 0.957032,0 0,7.290039 -1.328125,0 -3.232422,-6.098633 0,6.098633 -0.957031,0 0,-7.290039 z" />
    </g>
    <g
       id="text17"
       style="text-anchor:end">
      <path
         id="path74"
         style="text-anchor:end"
         d="m 163.42578,27.449219 0,0.961914 q -0.56152,-0.268555 -1.05957,-0.400391 -0.49805,-0.131836 -0.96191,-0.131836 -0.80567,0 -1.24512,0.3125 -0.43457,0.3125 -0.43457,0.888672 0,0.483399 0.28809,0.732422 0.29296,0.244141 1.10351,0.395508 l 0.5957,0.12207 q 1.10352,0.209961 1.62598,0.742188 0.52734,0.527343 0.52734,1.416015 0,1.059571 -0.71289,1.606446 -0.708,0.546875 -2.08007,0.546875 -0.51758,0 -1.10352,-0.117188 -0.58105,-0.117187 -1.20605,-0.34668 l 0,-1.015625 q 0.60058,0.336914 1.17675,0.507813 0.57617,0.170898 1.13282,0.170898 0.84472,0 1.30371,-0.332031 0.45898,-0.332031 0.45898,-0.947266 0,-0.537109 -0.33203,-0.839843 -0.32715,-0.302735 -1.0791,-0.454102 l -0.60059,-0.117187 q -1.10351,-0.219727 -1.59668,-0.688477 -0.49316,-0.46875 -0.49316,-1.303711 0,-0.966797 0.67871,-1.523437 0.68359,-0.556641 1.87988,-0.556641 0.5127,0 1.04492,0.09277 0.53223,0.09277 1.08887,0.278321 z" />
      <path
         id="path76"
         style="text-anchor:end"
         d="m 164.40234,27.209961 1.05957,0 2.02149,2.998047 2.00683,-2.998047 1.05957,0 -2.57812,3.818359 0,3.47168 -0.99121,0 0,-3.47168 -2.57813,-3.818359 z" />
      <path
         id="path78"
         style="text-anchor:end"
         d="m 171.5166,27.209961 1.32813,0 3.23242,6.098633 0,-6.098633 0.95703,0 0,7.290039 -1.32813,0 -3.23242,-6.098633 0,6.098633 -0.95703,0 0,-7.290039 z" />
      <path
         id="path80"
         style="text-anchor:end"
         d="m 184.45605,27.771484 0,1.040039 q -0.49804,-0.463867 -1.06445,-0.693359 -0.56152,-0.229492 -1.19629,-0.229492 -1.25,0 -1.91406,0.766601 -0.66406,0.761719 -0.66406,2.207032 0,1.440429 0.66406,2.207031 0.66406,0.761719 1.91406,0.761719 0.63477,0 1.19629,-0.229493 0.56641,-0.229492 1.06445,-0.693359 l 0,1.030274 q -0.51757,0.351562 -1.09863,0.527343 -0.57617,0.175782 -1.2207,0.175782 -1.65527,0 -2.60742,-1.010743 -0.95215,-1.015625 -0.95215,-2.768554 0,-1.757813 0.95215,-2.768555 0.95215,-1.015625 2.60742,-1.015625 0.6543,0 1.23047,0.175781 0.58105,0.170899 1.08886,0.517578 z" />
      <path
         id="path82"
         style="text-anchor:end"
         d="m 192.13184,27.878906 q -1.07422,0 -1.70899,0.800781 -0.62988,0.800782 -0.62988,2.182618 0,1.376953 0.62988,2.177734 0.63477,0.800781 1.70899,0.800781 1.07421,0 1.69921,-0.800781 0.62989,-0.800781 0.62989,-2.177734 0,-1.381836 -0.62989,-2.182618 -0.625,-0.800781 -1.69921,-0.800781 z m 0,-0.800781 q 1.5332,0 2.45117,1.030273 0.91797,1.025391 0.91797,2.753907 0,1.723632 -0.91797,2.753906 -0.91797,1.025391 -2.45117,1.025391 -1.53809,0 -2.46094,-1.025391 -0.91797,-1.025391 -0.91797,-2.753906 0,-1.728516 0.91797,-2.753907 0.92285,-1.030273 2.46094,-1.030273 z" />
      <path
         id="path84"
         style="text-anchor:end"
         d="m 196.93164,27.209961 0.99121,0 0,4.428711 q 0,1.171875 0.42481,1.689453 0.4248,0.512695 1.37695,0.512695 0.94726,0 1.37207,-0.512695 0.4248,-0.517578 0.4248,-1.689453 l 0,-4.428711 0.99122,0 0,4.550781 q 0,1.425781 -0.70801,2.15332 -0.70313,0.72754 -2.08008,0.72754 -1.38184,0 -2.08984,-0.72754 -0.70313,-0.727539 -0.70313,-2.15332 l 0,-4.550781 z" />
      <path
         id="path86"
         style="text-anchor:end"
         d="m 203.35742,27.209961 6.16699,0 0,0.830078 -2.58789,0 0,6.459961 -0.99121,0 0,-6.459961 -2.58789,0 0,-0.830078 z" />
    </g>
  </g>
</svg>
