<?xml version="1.0" encoding="UTF-8" standalone="no"?>
<svg
   xmlns:dc="http://purl.org/dc/elements/1.1/"
   xmlns:cc="http://creativecommons.org/ns#"
   xmlns:rdf="http://www.w3.org/1999/02/22-rdf-syntax-ns#"
   xmlns:svg="http://www.w3.org/2000/svg"
   xmlns="http://www.w3.org/2000/svg"
   version="1.1"
   id="svg2"
   height="380px"
   width="30px">
  <metadata
     id="metadata26">
    <rdf:RDF>
      <cc:Work
         rdf:about="">
        <dc:format>image/svg+xml</dc:format>
        <dc:type
           rdf:resource="http://purl.org/dc/dcmitype/StillImage" />
      </cc:Work>
    </rdf:RDF>
  </metadata>
  <defs
     id="defs24" />
  <g
     id="background">
    <path
       id="rect4255"
       d="m 0,0 30,0 0,380 -30,0 z"
       style="fill:#333333;stroke:none" />
    <path
       id="path4656"
       d="M 0,380 0,0 30,0 29,1 1,1 1,379 Z"
       style="fill:#555555;fill-rule:nonzero;stroke:none" />
    <path
       id="path4658"
       d="m 0,380 30,0 0,-380 -1,1 0,378 -28,0 z"
       style="fill:#111111;fill-rule:nonzero;stroke:none" />
  </g>
  <g
     style="font-size:12px;font-family:'DejaVu Sans';fill:#777777"
     font-size="12"
     id="logo">
    <g
       id="text9"
       style="text-anchor:middle">
      <path
         id="path30"
         style="text-anchor:middle"
         d="m 4.6347656,4.2246094 0,3.2871093 1.4882813,0 q 0.8261718,0 1.2773437,-0.4277343 0.4511719,-0.4277344 0.4511719,-1.21875 0,-0.7851563 -0.4511719,-1.2128907 Q 6.9492187,4.2246094 6.1230469,4.2246094 l -1.4882813,0 z m -1.1835937,-0.9726563 2.671875,0 q 1.4707031,0 2.2207031,0.6679688 0.7558594,0.6621093 0.7558594,1.9453125 0,1.2949218 -0.7558594,1.9570312 -0.75,0.6621094 -2.2207031,0.6621094 l -1.4882813,0 0,3.515625 -1.1835937,0 0,-8.7480469 z" />
      <path
         id="path32"
         style="text-anchor:middle"
         d="m 11.876953,4.2246094 0,6.8027346 1.429688,0 q 1.810547,0 2.648437,-0.820313 0.84375,-0.8203122 0.84375,-2.5898435 0,-1.7578125 -0.84375,-2.5722656 -0.83789,-0.8203125 -2.648437,-0.8203125 l -1.429688,0 z m -1.183594,-0.9726563 2.431641,0 q 2.542969,0 3.732422,1.0605469 1.189453,1.0546875 1.189453,3.3046875 0,2.2617188 -1.195313,3.3222655 Q 15.65625,12 13.125,12 l -2.431641,0 0,-8.7480469 z" />
      <path
         id="path34"
         style="text-anchor:middle"
         d="m 19.927734,3.2519531 1.59375,0 3.878907,7.3183599 0,-7.3183599 1.148437,0 0,8.7480469 -1.59375,0 -3.878906,-7.3183594 0,7.3183594 -1.148438,0 0,-8.7480469 z" />
    </g>
  </g>
  <g
     style="font-size:10px;font-family:'DejaVu Sans';fill:#ffffff;stroke:none"
     font-size="10"
     id="group1">
    <g
       id="text12"
       style="text-anchor:middle">
      <path
         id="path37"
         style="text-anchor:middle"
         d="m 10.766602,52.709961 0.986328,0 0,7.290039 -0.986328,0 0,-7.290039 z" />
      <path
         id="path39"
         style="text-anchor:middle"
         d="m 13.71582,52.709961 1.328125,0 3.232422,6.098633 0,-6.098633 0.957031,0 0,7.290039 -1.328125,0 -3.232421,-6.098633 0,6.098633 -0.957032,0 0,-7.290039 z" />
    </g>
    <g
       id="text14"
       style="text-anchor:middle">
      <path
         id="path42"
         style="text-anchor:middle"
         d="m 11.342773,143.27148 0,1.04004 q -0.498046,-0.46386 -1.064453,-0.69336 -0.5615231,-0.22949 -1.1962887,-0.22949 -1.2500001,0 -1.9140626,0.7666 -0.6640625,0.76172 -0.6640625,2.20703 0,1.44043 0.6640625,2.20704 0.6640625,0.76171 1.9140626,0.76171 0.6347656,0 1.1962887,-0.22949 0.566407,-0.22949 1.064453,-0.69336 l 0,1.03028 q -0.517578,0.35156 -1.098632,0.52734 -0.5761722,0.17578 -1.2207035,0.17578 -1.6552734,0 -2.6074219,-1.01074 -0.9521484,-1.01563 -0.9521484,-2.76856 0,-1.75781 0.9521484,-2.76855 0.9521485,-1.01563 2.6074219,-1.01563 0.6542969,0 1.2304685,0.17579 0.581055,0.17089 1.088867,0.51757 z" />
      <path
         id="path44"
         style="text-anchor:middle"
         d="m 14.755859,150 -2.783203,-7.29004 1.030274,0 2.30957,6.1377 2.314453,-6.1377 1.025391,0 -2.778321,7.29004 -1.118164,0 z" />
      <path
         id="path46"
         style="text-anchor:middle"
         d="m 19.970703,149.16992 1.611328,0 0,-5.56152 -1.752929,0.35156 0,-0.89844 1.743164,-0.35156 0.986328,0 0,6.45996 1.611328,0 0,0.83008 -4.199219,0 0,-0.83008 z" />
    </g>
    <g
       id="text16"
       style="text-anchor:middle">
      <path
         id="path49"
         style="text-anchor:middle"
         d="m 11.342773,233.27148 0,1.04004 q -0.498046,-0.46386 -1.064453,-0.69336 -0.5615231,-0.22949 -1.1962887,-0.22949 -1.2500001,0 -1.9140626,0.7666 -0.6640625,0.76172 -0.6640625,2.20703 0,1.44043 0.6640625,2.20704 0.6640625,0.76171 1.9140626,0.76171 0.6347656,0 1.1962887,-0.22949 0.566407,-0.22949 1.064453,-0.69336 l 0,1.03028 q -0.517578,0.35156 -1.098632,0.52734 -0.5761722,0.17578 -1.2207035,0.17578 -1.6552734,0 -2.6074219,-1.01074 -0.9521484,-1.01563 -0.9521484,-2.76856 0,-1.75781 0.9521484,-2.76855 0.9521485,-1.01563 2.6074219,-1.01563 0.6542969,0 1.2304685,0.17579 0.581055,0.17089 1.088867,0.51757 z" />
      <path
         id="path51"
         style="text-anchor:middle"
         d="m 14.755859,240 -2.783203,-7.29004 1.030274,0 2.30957,6.1377 2.314453,-6.1377 1.025391,0 -2.778321,7.29004 -1.118164,0 z" />
      <path
         id="path53"
         style="text-anchor:middle"
         d="m 20.649414,239.16992 3.442383,0 0,0.83008 -4.628906,0 0,-0.83008 q 0.561523,-0.58105 1.52832,-1.55762 0.97168,-0.98144 1.220703,-1.26464 0.473633,-0.53223 0.65918,-0.89844 0.190429,-0.3711 0.190429,-0.72754 0,-0.58106 -0.410156,-0.94727 -0.405273,-0.36621 -1.05957,-0.36621 -0.463867,0 -0.981445,0.16114 -0.512696,0.16113 -1.098633,0.48828 l 0,-0.9961 q 0.595703,-0.23925 1.113281,-0.36132 0.517578,-0.12208 0.947266,-0.12208 1.132812,0 1.80664,0.56641 0.673828,0.56641 0.673828,1.51367 0,0.44922 -0.170898,0.8545 -0.166016,0.40039 -0.610352,0.94726 -0.12207,0.1416 -0.776367,0.82031 -0.654297,0.67383 -1.845703,1.88965 z" />
    </g>
    <g
       id="text18"
       style="text-anchor:middle">
      <path
         id="path56"
         style="text-anchor:middle"
         d="m 8.6865234,323.37891 q -1.0742187,0 -1.7089843,0.80078 -0.6298829,0.80078 -0.6298829,2.18261 0,1.37696 0.6298829,2.17774 0.6347656,0.80078 1.7089843,0.80078 1.0742188,0 1.6992186,-0.80078 0.629883,-0.80078 0.629883,-2.17774 0,-1.38183 -0.629883,-2.18261 -0.6249998,-0.80078 -1.6992186,-0.80078 z m 0,-0.80079 q 1.5332036,0 2.4511716,1.03028 0.917969,1.02539 0.917969,2.7539 0,1.72364 -0.917969,2.75391 -0.917968,1.02539 -2.4511716,1.02539 -1.5380859,0 -2.4609375,-1.02539 -0.9179687,-1.02539 -0.9179687,-2.75391 0,-1.72851 0.9179687,-2.7539 0.9228516,-1.03028 2.4609375,-1.03028 z" />
      <path
         id="path58"
         style="text-anchor:middle"
         d="m 13.598633,322.70996 0.986328,0 0,6.45996 3.549805,0 0,0.83008 -4.536133,0 0,-7.29004 z" />
      <path
         id="path60"
         style="text-anchor:middle"
         d="m 21.835937,323.68164 -1.33789,3.62793 2.680664,0 -1.342774,-3.62793 z m -0.55664,-0.97168 1.118164,0 2.77832,7.29004 -1.02539,0 -0.664063,-1.87012 -3.286133,0 -0.664062,1.87012 -1.040039,0 2.783203,-7.29004 z" />
    </g>
    <g
       id="text20"
       style="text-anchor:middle">
      <path
         id="path63"
         style="text-anchor:middle"
         d="m 6.1132812,332.70996 6.1669918,0 0,0.83008 -2.5878902,0 0,6.45996 -0.9912109,0 0,-6.45996 -2.5878907,0 0,-0.83008 z" />
      <path
         id="path65"
         style="text-anchor:middle"
         d="m 14.223633,333.52051 0,2.73926 1.240234,0 q 0.688477,0 1.064453,-0.35645 0.375977,-0.35645 0.375977,-1.01562 0,-0.6543 -0.375977,-1.01075 -0.375976,-0.35644 -1.064453,-0.35644 l -1.240234,0 z m -0.986328,-0.81055 2.226562,0 q 1.225586,0 1.850586,0.55664 0.629883,0.55176 0.629883,1.6211 0,1.0791 -0.629883,1.63085 -0.625,0.55176 -1.850586,0.55176 l -1.240234,0 0,2.92969 -0.986328,0 0,-7.29004 z" />
      <path
         id="path67"
         style="text-anchor:middle"
         d="m 19.272461,332.70996 0.986328,0 0,6.45996 3.549805,0 0,0.83008 -4.536133,0 0,-7.29004 z" />
    </g>
  </g>
</svg>
