<?xml version="1.0" encoding="UTF-8" standalone="no"?>
<svg
   xmlns:dc="http://purl.org/dc/elements/1.1/"
   xmlns:cc="http://creativecommons.org/ns#"
   xmlns:rdf="http://www.w3.org/1999/02/22-rdf-syntax-ns#"
   xmlns:svg="http://www.w3.org/2000/svg"
   xmlns="http://www.w3.org/2000/svg"
   version="1.1"
   id="svg2"
   height="380px"
   width="120px">
  <metadata
     id="metadata19">
    <rdf:RDF>
      <cc:Work
         rdf:about="">
        <dc:format>image/svg+xml</dc:format>
        <dc:type
           rdf:resource="http://purl.org/dc/dcmitype/StillImage" />
      </cc:Work>
    </rdf:RDF>
  </metadata>
  <defs
     id="defs17" />
  <g
     id="background">
    <path
       id="rect4255"
       d="m 0,0 120,0 0,380 -120,0 z"
       style="fill:#333333;stroke:none" />
    <path
       id="path4656"
       d="M 0,380 0,0 120,0 119,1 1,1 1,379 Z"
       style="fill:#555555;fill-rule:nonzero;stroke:none" />
    <path
       id="path4658"
       d="m 0,380 120,0 0,-380 -1,1 0,378 -118,0 z"
       style="fill:#111111;fill-rule:nonzero;stroke:none" />
  </g>
  <g
     style="font-size:12px;font-family:'DejaVu Sans';fill:#777777"
     font-size="12"
     id="logo"><path
   id="path9"
   d="m 6,346 a 9,9 0 0 1 0,18 l 0,0 0,-6 a 3.6,3.6 0 0 0 0,-6 z m 12,0 87,0 a 9,9 0 0 1 0,18 l -87,0 a 9,9 0 0 1 0,-18 z m 3,9 a 24,24 0 0 0 18,0 24,24 0 0 0 -18,0 z" />

       id=&quot;path4136&quot;
       inkscape:connector-curvature=&quot;0&quot; /&gt;
    <g
   id="text4662"
   style="text-anchor:middle">
  <path
     id="path23"
     style="text-anchor:middle"
     d="m 36.199219,368.25195 7.40039,0 0,0.9961 -3.105468,0 0,7.75195 -1.189454,0 0,-7.75195 -3.105468,0 0,-0.9961 z" />
  <path
     id="path25"
     style="text-anchor:middle"
     d="m 45.205078,371.19336 q -0.867187,0 -1.371094,0.67969 -0.503906,0.67382 -0.503906,1.85156 0,1.17773 0.498047,1.85742 0.503906,0.67383 1.376953,0.67383 0.861328,0 1.365234,-0.67969 0.503907,-0.67969 0.503907,-1.85156 0,-1.16602 -0.503907,-1.8457 -0.503906,-0.68555 -1.365234,-0.68555 z m 0,-0.91406 q 1.40625,0 2.208984,0.91406 0.802735,0.91406 0.802735,2.53125 0,1.61133 -0.802735,2.53125 -0.802734,0.91406 -2.208984,0.91406 -1.412109,0 -2.214844,-0.91406 -0.796875,-0.91992 -0.796875,-2.53125 0,-1.61719 0.796875,-2.53125 0.802735,-0.91406 2.214844,-0.91406 z" />
  <path
     id="path27"
     style="text-anchor:middle"
     d="m 53.800781,371.44531 q -0.18164,-0.10547 -0.398437,-0.15234 -0.210938,-0.0527 -0.46875,-0.0527 -0.914063,0 -1.40625,0.59766 -0.486328,0.5918 -0.486328,1.70508 l 0,3.45703 -1.083985,0 0,-6.5625 1.083985,0 0,1.01953 q 0.339843,-0.59766 0.884765,-0.88476 0.544922,-0.29297 1.324219,-0.29297 0.111328,0 0.246094,0.0176 0.134765,0.0117 0.298828,0.041 l 0.0059,1.10742 z" />
  <path
     id="path29"
     style="text-anchor:middle"
     d="m 55.986328,376.01562 0,3.48047 -1.083984,0 0,-9.05859 1.083984,0 0,0.99609 q 0.339844,-0.58593 0.855469,-0.86718 0.521484,-0.28711 1.242187,-0.28711 1.195313,0 1.939453,0.94922 0.75,0.94921 0.75,2.49609 0,1.54687 -0.75,2.49609 -0.74414,0.94922 -1.939453,0.94922 -0.720703,0 -1.242187,-0.28125 -0.515625,-0.28711 -0.855469,-0.87305 z m 3.667969,-2.29101 q 0,-1.18945 -0.492188,-1.86328 -0.486328,-0.67969 -1.341797,-0.67969 -0.855468,0 -1.347656,0.67969 -0.486328,0.67383 -0.486328,1.86328 0,1.18945 0.486328,1.86914 0.492188,0.67383 1.347656,0.67383 0.855469,0 1.341797,-0.67383 0.492188,-0.67969 0.492188,-1.86914 z" />
  <path
     id="path31"
     style="text-anchor:middle"
     d="m 68.173828,373.44922 0,0.52734 -4.957031,0 q 0.07031,1.11328 0.667969,1.69922 0.603515,0.58008 1.675781,0.58008 0.621094,0 1.201172,-0.15234 0.585937,-0.15235 1.160156,-0.45704 l 0,1.01954 q -0.580078,0.24609 -1.189453,0.375 -0.609375,0.1289 -1.236328,0.1289 -1.570313,0 -2.490235,-0.91406 -0.914062,-0.91406 -0.914062,-2.47266 0,-1.61133 0.867187,-2.55468 0.873047,-0.94922 2.34961,-0.94922 1.324218,0 2.091797,0.85547 0.773437,0.8496 0.773437,2.31445 z m -1.078125,-0.31641 q -0.01172,-0.88476 -0.498047,-1.41211 -0.480469,-0.52734 -1.277344,-0.52734 -0.902343,0 -1.447265,0.50976 -0.539063,0.50977 -0.621094,1.43555 l 3.84375,-0.006 z" />
  <path
     id="path33"
     style="text-anchor:middle"
     d="m 74.261719,371.43359 0,-3.55078 1.078125,0 0,9.11719 -1.078125,0 0,-0.98438 q -0.339844,0.58594 -0.861328,0.87305 -0.515625,0.28125 -1.242188,0.28125 -1.189453,0 -1.939453,-0.94922 -0.744141,-0.94922 -0.744141,-2.49609 0,-1.54688 0.744141,-2.49609 0.75,-0.94922 1.939453,-0.94922 0.726563,0 1.242188,0.28711 0.521484,0.28125 0.861328,0.86718 z m -3.673828,2.29102 q 0,1.18945 0.486328,1.86914 0.492187,0.67383 1.347656,0.67383 0.855469,0 1.347656,-0.67383 0.492188,-0.67969 0.492188,-1.86914 0,-1.18945 -0.492188,-1.86328 -0.492187,-0.67969 -1.347656,-0.67969 -0.855469,0 -1.347656,0.67969 -0.486328,0.67383 -0.486328,1.86328 z" />
  <path
     id="path35"
     style="text-anchor:middle"
     d="m 80.103516,371.19336 q -0.867188,0 -1.371094,0.67969 -0.503906,0.67382 -0.503906,1.85156 0,1.17773 0.498046,1.85742 0.503907,0.67383 1.376954,0.67383 0.861328,0 1.365234,-0.67969 0.503906,-0.67969 0.503906,-1.85156 0,-1.16602 -0.503906,-1.8457 -0.503906,-0.68555 -1.365234,-0.68555 z m 0,-0.91406 q 1.40625,0 2.208984,0.91406 0.802734,0.91406 0.802734,2.53125 0,1.61133 -0.802734,2.53125 -0.802734,0.91406 -2.208984,0.91406 -1.41211,0 -2.214844,-0.91406 -0.796875,-0.91992 -0.796875,-2.53125 0,-1.61719 0.796875,-2.53125 0.802734,-0.91406 2.214844,-0.91406 z" />
</g>
<g
   id="text12"
   style="text-anchor:middle">
  <path
     id="path38"
     style="text-anchor:middle"
     d="m 26.126953,4.2246094 0,3.2871093 1.488281,0 q 0.826172,0 1.277344,-0.4277343 0.451172,-0.4277344 0.451172,-1.21875 0,-0.7851563 -0.451172,-1.2128907 -0.451172,-0.4277343 -1.277344,-0.4277343 l -1.488281,0 z m -1.183594,-0.9726563 2.671875,0 q 1.470703,0 2.220703,0.6679688 0.75586,0.6621093 0.75586,1.9453125 0,1.2949218 -0.75586,1.9570312 -0.75,0.6621094 -2.220703,0.6621094 l -1.488281,0 0,3.515625 -1.183594,0 0,-8.7480469 z" />
  <path
     id="path40"
     style="text-anchor:middle"
     d="m 34.582031,8.7011719 q -1.30664,0 -1.810547,0.2988281 -0.503906,0.2988281 -0.503906,1.019531 0,0.574219 0.375,0.914063 0.380859,0.333984 1.03125,0.333984 0.896484,0 1.435547,-0.632812 0.544922,-0.6386722 0.544922,-1.6933597 l 0,-0.2402344 -1.072266,0 z m 2.150391,-0.4453125 0,3.7441406 -1.078125,0 0,-0.996094 q -0.369141,0.597657 -0.919922,0.884766 -0.550781,0.28125 -1.347656,0.28125 -1.007813,0 -1.605469,-0.5625 -0.591797,-0.568359 -0.591797,-1.517578 0,-1.1074221 0.738281,-1.6699221 0.744141,-0.5625 2.214844,-0.5625 l 1.511719,0 0,-0.1054688 q 0,-0.7441406 -0.492188,-1.1484375 -0.486328,-0.4101562 -1.371093,-0.4101562 -0.5625,0 -1.095704,0.1347656 -0.533203,0.1347656 -1.02539,0.4042969 l 0,-0.9960938 Q 32.261719,5.5078125 32.818359,5.3964844 33.375,5.2792969 33.902344,5.2792969 q 1.423828,0 2.126953,0.7382812 0.703125,0.7382813 0.703125,2.2382813 z" />
  <path
     id="path42"
     style="text-anchor:middle"
     d="m 40.025391,3.5742188 0,1.8632812 2.220703,0 0,0.8378906 -2.220703,0 0,3.5625 q 0,0.8027344 0.216796,1.0312504 0.222657,0.228515 0.896485,0.228515 l 1.107422,0 0,0.902344 -1.107422,0 q -1.248047,0 -1.722656,-0.462891 -0.47461,-0.46875 -0.47461,-1.6992184 l 0,-3.5625 -0.791015,0 0,-0.8378906 0.791015,0 0,-1.8632812 1.083985,0 z" />
  <path
     id="path44"
     style="text-anchor:middle"
     d="m 48.392578,5.6894531 0,1.0078125 q -0.457031,-0.2519531 -0.919922,-0.375 -0.457031,-0.1289062 -0.925781,-0.1289062 -1.048828,0 -1.628906,0.6679687 -0.580078,0.6621094 -0.580078,1.8632813 0,1.2011719 0.580078,1.8691406 0.580078,0.662109 1.628906,0.662109 0.46875,0 0.925781,-0.123046 0.462891,-0.128907 0.919922,-0.38086 l 0,0.996094 q -0.451172,0.210937 -0.9375,0.316406 -0.480469,0.105469 -1.025391,0.105469 -1.482421,0 -2.355468,-0.931641 -0.873047,-0.93164 -0.873047,-2.5136716 0,-1.6054688 0.878906,-2.5253907 Q 44.964844,5.2792969 46.5,5.2792969 q 0.498047,0 0.972656,0.1054687 0.47461,0.099609 0.919922,0.3046875 z" />
  <path
     id="path46"
     style="text-anchor:middle"
     d="m 55.734375,8.0390625 0,3.9609375 -1.078125,0 0,-3.9257812 q 0,-0.9316407 -0.363281,-1.3945313 -0.363282,-0.4628906 -1.089844,-0.4628906 -0.873047,0 -1.376953,0.5566406 -0.503906,0.5566406 -0.503906,1.5175781 l 0,3.7089844 -1.083985,0 0,-9.1171875 1.083985,0 0,3.5742187 q 0.386718,-0.5917968 0.908203,-0.8847656 0.527343,-0.2929687 1.21289,-0.2929687 1.13086,0 1.710938,0.703125 0.580078,0.6972656 0.580078,2.0566406 z" />
  <path
     id="path48"
     style="text-anchor:middle"
     d="m 62.947266,4.2246094 0,6.8027346 1.429687,0 q 1.810547,0 2.648438,-0.820313 0.84375,-0.8203122 0.84375,-2.5898435 0,-1.7578125 -0.84375,-2.5722656 Q 66.1875,4.2246094 64.376953,4.2246094 l -1.429687,0 z m -1.183594,-0.9726563 2.43164,0 q 2.542969,0 3.732422,1.0605469 1.189453,1.0546875 1.189453,3.3046875 0,2.2617188 -1.195312,3.3222655 Q 66.726562,12 64.195312,12 l -2.43164,0 0,-8.7480469 z" />
  <path
     id="path50"
     style="text-anchor:middle"
     d="m 76.564453,8.4492188 0,0.5273437 -4.957031,0 q 0.07031,1.1132815 0.667969,1.6992185 0.603515,0.580078 1.675781,0.580078 0.621094,0 1.201172,-0.152343 0.585937,-0.152344 1.160156,-0.457032 l 0,1.019532 q -0.580078,0.246093 -1.189453,0.375 -0.609375,0.128906 -1.236328,0.128906 -1.570313,0 -2.490235,-0.914063 -0.914062,-0.914062 -0.914062,-2.4726559 0,-1.6113281 0.867187,-2.5546875 0.873047,-0.9492187 2.34961,-0.9492187 1.324218,0 2.091797,0.8554687 0.773437,0.8496094 0.773437,2.3144532 z M 75.486328,8.1328125 Q 75.474609,7.2480469 74.988281,6.7207031 74.507812,6.1933594 73.710937,6.1933594 q -0.902343,0 -1.447265,0.5097656 -0.539063,0.5097656 -0.621094,1.4355469 l 3.84375,-0.00586 z" />
  <path
     id="path52"
     style="text-anchor:middle"
     d="M 83.443359,6.6972656 Q 83.847656,5.9707031 84.410156,5.625 q 0.5625,-0.3457031 1.324219,-0.3457031 1.025391,0 1.582031,0.7207031 0.556641,0.7148437 0.556641,2.0390625 l 0,3.9609375 -1.083985,0 0,-3.9257812 q 0,-0.9433594 -0.333984,-1.4003907 -0.333984,-0.4570312 -1.019531,-0.4570312 -0.837891,0 -1.324219,0.5566406 Q 83.625,7.3300781 83.625,8.2910156 l 0,3.7089844 -1.083984,0 0,-3.9257812 q 0,-0.9492188 -0.333985,-1.4003907 -0.333984,-0.4570312 -1.03125,-0.4570312 -0.826172,0 -1.3125,0.5625 -0.486328,0.5566406 -0.486328,1.5117187 l 0,3.7089844 -1.083984,0 0,-6.5625 1.083984,0 0,1.0195312 q 0.369141,-0.6035156 0.884766,-0.890625 0.515625,-0.2871093 1.224609,-0.2871093 0.714844,0 1.212891,0.3632812 0.503906,0.3632813 0.74414,1.0546875 z" />
  <path
     id="path54"
     style="text-anchor:middle"
     d="m 92.572266,6.1933594 q -0.867188,0 -1.371094,0.6796875 -0.503906,0.6738281 -0.503906,1.8515625 0,1.1777344 0.498046,1.8574216 0.503907,0.673828 1.376954,0.673828 0.861328,0 1.365234,-0.679687 0.503906,-0.6796876 0.503906,-1.8515626 0,-1.1660157 -0.503906,-1.8457032 -0.503906,-0.6855468 -1.365234,-0.6855468 z m 0,-0.9140625 q 1.40625,0 2.208984,0.9140625 0.802734,0.9140625 0.802734,2.53125 0,1.6113286 -0.802734,2.5312496 -0.802734,0.914063 -2.208984,0.914063 -1.41211,0 -2.214844,-0.914063 -0.796875,-0.919921 -0.796875,-2.5312496 0,-1.6171875 0.796875,-2.53125 0.802734,-0.9140625 2.214844,-0.9140625 z" />
</g>
</g>
  <g
     style="font-size:6px;font-family:'DejaVu Sans';fill:none;stroke:#ffffff;stroke-width:1;stroke-linecap:round;stroke-linejoin:round"
     font-size="6"
     id="group1" />
</svg>
