<?xml version="1.0" encoding="UTF-8" standalone="no"?>
<svg
   xmlns:dc="http://purl.org/dc/elements/1.1/"
   xmlns:cc="http://creativecommons.org/ns#"
   xmlns:rdf="http://www.w3.org/1999/02/22-rdf-syntax-ns#"
   xmlns:svg="http://www.w3.org/2000/svg"
   xmlns="http://www.w3.org/2000/svg"
   version="1.1"
   id="svg2"
   height="380px"
   width="120px">
  <metadata
     id="metadata48">
    <rdf:RDF>
      <cc:Work
         rdf:about="">
        <dc:format>image/svg+xml</dc:format>
        <dc:type
           rdf:resource="http://purl.org/dc/dcmitype/StillImage" />
      </cc:Work>
    </rdf:RDF>
  </metadata>
  <defs
     id="defs46" />
  <g
     id="background">
    <path
       id="rect4255"
       d="m 0,0 120,0 0,380 -120,0 z"
       style="fill:#333333;stroke:none" />
    <path
       id="path4656"
       d="M 0,380 0,0 120,0 119,1 1,1 1,379 Z"
       style="fill:#555555;fill-rule:nonzero;stroke:none" />
    <path
       id="path4658"
       d="m 0,380 120,0 0,-380 -1,1 0,378 -118,0 z"
       style="fill:#111111;fill-rule:nonzero;stroke:none" />
  </g>
  <g
     style="font-size:12px;font-family:'DejaVu Sans';fill:#777777"
     font-size="12"
     id="logo"><path
   id="path9"
   d="m 6,346 a 9,9 0 0 1 0,18 l 0,0 0,-6 a 3.6,3.6 0 0 0 0,-6 z m 12,0 87,0 a 9,9 0 0 1 0,18 l -87,0 a 9,9 0 0 1 0,-18 z m 3,9 a 24,24 0 0 0 18,0 24,24 0 0 0 -18,0 z" />

       id=&quot;path4136&quot;
       inkscape:connector-curvature=&quot;0&quot; /&gt;
    <g
   id="text4662"
   style="text-anchor:middle">
  <path
     id="path52"
     style="text-anchor:middle"
     d="m 36.199219,368.25195 7.40039,0 0,0.9961 -3.105468,0 0,7.75195 -1.189454,0 0,-7.75195 -3.105468,0 0,-0.9961 z" />
  <path
     id="path54"
     style="text-anchor:middle"
     d="m 45.205078,371.19336 q -0.867187,0 -1.371094,0.67969 -0.503906,0.67382 -0.503906,1.85156 0,1.17773 0.498047,1.85742 0.503906,0.67383 1.376953,0.67383 0.861328,0 1.365234,-0.67969 0.503907,-0.67969 0.503907,-1.85156 0,-1.16602 -0.503907,-1.8457 -0.503906,-0.68555 -1.365234,-0.68555 z m 0,-0.91406 q 1.40625,0 2.208984,0.91406 0.802735,0.91406 0.802735,2.53125 0,1.61133 -0.802735,2.53125 -0.802734,0.91406 -2.208984,0.91406 -1.412109,0 -2.214844,-0.91406 -0.796875,-0.91992 -0.796875,-2.53125 0,-1.61719 0.796875,-2.53125 0.802735,-0.91406 2.214844,-0.91406 z" />
  <path
     id="path56"
     style="text-anchor:middle"
     d="m 53.800781,371.44531 q -0.18164,-0.10547 -0.398437,-0.15234 -0.210938,-0.0527 -0.46875,-0.0527 -0.914063,0 -1.40625,0.59766 -0.486328,0.5918 -0.486328,1.70508 l 0,3.45703 -1.083985,0 0,-6.5625 1.083985,0 0,1.01953 q 0.339843,-0.59766 0.884765,-0.88476 0.544922,-0.29297 1.324219,-0.29297 0.111328,0 0.246094,0.0176 0.134765,0.0117 0.298828,0.041 l 0.0059,1.10742 z" />
  <path
     id="path58"
     style="text-anchor:middle"
     d="m 55.986328,376.01562 0,3.48047 -1.083984,0 0,-9.05859 1.083984,0 0,0.99609 q 0.339844,-0.58593 0.855469,-0.86718 0.521484,-0.28711 1.242187,-0.28711 1.195313,0 1.939453,0.94922 0.75,0.94921 0.75,2.49609 0,1.54687 -0.75,2.49609 -0.74414,0.94922 -1.939453,0.94922 -0.720703,0 -1.242187,-0.28125 -0.515625,-0.28711 -0.855469,-0.87305 z m 3.667969,-2.29101 q 0,-1.18945 -0.492188,-1.86328 -0.486328,-0.67969 -1.341797,-0.67969 -0.855468,0 -1.347656,0.67969 -0.486328,0.67383 -0.486328,1.86328 0,1.18945 0.486328,1.86914 0.492188,0.67383 1.347656,0.67383 0.855469,0 1.341797,-0.67383 0.492188,-0.67969 0.492188,-1.86914 z" />
  <path
     id="path60"
     style="text-anchor:middle"
     d="m 68.173828,373.44922 0,0.52734 -4.957031,0 q 0.07031,1.11328 0.667969,1.69922 0.603515,0.58008 1.675781,0.58008 0.621094,0 1.201172,-0.15234 0.585937,-0.15235 1.160156,-0.45704 l 0,1.01954 q -0.580078,0.24609 -1.189453,0.375 -0.609375,0.1289 -1.236328,0.1289 -1.570313,0 -2.490235,-0.91406 -0.914062,-0.91406 -0.914062,-2.47266 0,-1.61133 0.867187,-2.55468 0.873047,-0.94922 2.34961,-0.94922 1.324218,0 2.091797,0.85547 0.773437,0.8496 0.773437,2.31445 z m -1.078125,-0.31641 q -0.01172,-0.88476 -0.498047,-1.41211 -0.480469,-0.52734 -1.277344,-0.52734 -0.902343,0 -1.447265,0.50976 -0.539063,0.50977 -0.621094,1.43555 l 3.84375,-0.006 z" />
  <path
     id="path62"
     style="text-anchor:middle"
     d="m 74.261719,371.43359 0,-3.55078 1.078125,0 0,9.11719 -1.078125,0 0,-0.98438 q -0.339844,0.58594 -0.861328,0.87305 -0.515625,0.28125 -1.242188,0.28125 -1.189453,0 -1.939453,-0.94922 -0.744141,-0.94922 -0.744141,-2.49609 0,-1.54688 0.744141,-2.49609 0.75,-0.94922 1.939453,-0.94922 0.726563,0 1.242188,0.28711 0.521484,0.28125 0.861328,0.86718 z m -3.673828,2.29102 q 0,1.18945 0.486328,1.86914 0.492187,0.67383 1.347656,0.67383 0.855469,0 1.347656,-0.67383 0.492188,-0.67969 0.492188,-1.86914 0,-1.18945 -0.492188,-1.86328 -0.492187,-0.67969 -1.347656,-0.67969 -0.855469,0 -1.347656,0.67969 -0.486328,0.67383 -0.486328,1.86328 z" />
  <path
     id="path64"
     style="text-anchor:middle"
     d="m 80.103516,371.19336 q -0.867188,0 -1.371094,0.67969 -0.503906,0.67382 -0.503906,1.85156 0,1.17773 0.498046,1.85742 0.503907,0.67383 1.376954,0.67383 0.861328,0 1.365234,-0.67969 0.503906,-0.67969 0.503906,-1.85156 0,-1.16602 -0.503906,-1.8457 -0.503906,-0.68555 -1.365234,-0.68555 z m 0,-0.91406 q 1.40625,0 2.208984,0.91406 0.802734,0.91406 0.802734,2.53125 0,1.61133 -0.802734,2.53125 -0.802734,0.91406 -2.208984,0.91406 -1.41211,0 -2.214844,-0.91406 -0.796875,-0.91992 -0.796875,-2.53125 0,-1.61719 0.796875,-2.53125 0.802734,-0.91406 2.214844,-0.91406 z" />
</g>
<g
   id="text12"
   style="text-anchor:middle">
  <path
     id="path67"
     style="text-anchor:middle"
     d="m 30.820312,3.5390625 0,1.1542969 Q 30.146484,4.3710937 29.548828,4.2128906 28.951172,4.0546875 28.394531,4.0546875 q -0.966797,0 -1.49414,0.375 -0.521485,0.375 -0.521485,1.0664062 0,0.5800782 0.345703,0.8789063 0.351563,0.2929687 1.324219,0.4746094 l 0.714844,0.1464843 q 1.324219,0.2519532 1.951172,0.890625 0.632812,0.6328126 0.632812,1.6992188 0,1.2714845 -0.855469,1.9277345 -0.849609,0.65625 -2.496093,0.65625 -0.621094,0 -1.324219,-0.140625 -0.697266,-0.140625 -1.447266,-0.416016 l 0,-1.21875 q 0.720703,0.404297 1.41211,0.609375 0.691406,0.205078 1.359375,0.205078 1.013672,0 1.564453,-0.398437 0.550781,-0.398438 0.550781,-1.1367189 0,-0.6445312 -0.398437,-1.0078125 Q 29.320312,8.3027344 28.417969,8.1210938 L 27.697266,7.9804687 Q 26.373047,7.7167969 25.78125,7.1542969 q -0.591797,-0.5625 -0.591797,-1.5644532 0,-1.1601562 0.814453,-1.8281249 0.820313,-0.6679688 2.25586,-0.6679688 0.615234,0 1.253906,0.1113281 0.638672,0.1113282 1.30664,0.3339844 z" />
  <path
     id="path69"
     style="text-anchor:middle"
     d="m 34.212891,3.5742188 0,1.8632812 2.220703,0 0,0.8378906 -2.220703,0 0,3.5625 q 0,0.8027344 0.216796,1.0312504 0.222657,0.228515 0.896485,0.228515 l 1.107422,0 0,0.902344 -1.107422,0 q -1.248047,0 -1.722656,-0.462891 -0.47461,-0.46875 -0.47461,-1.6992184 l 0,-3.5625 -0.791015,0 0,-0.8378906 0.791015,0 0,-1.8632812 1.083985,0 z" />
  <path
     id="path71"
     style="text-anchor:middle"
     d="m 40.400391,6.1933594 q -0.867188,0 -1.371094,0.6796875 -0.503906,0.6738281 -0.503906,1.8515625 0,1.1777344 0.498046,1.8574216 0.503907,0.673828 1.376954,0.673828 0.861328,0 1.365234,-0.679687 0.503906,-0.6796876 0.503906,-1.8515626 0,-1.1660157 -0.503906,-1.8457032 -0.503906,-0.6855468 -1.365234,-0.6855468 z m 0,-0.9140625 q 1.40625,0 2.208984,0.9140625 0.802734,0.9140625 0.802734,2.53125 0,1.6113286 -0.802734,2.5312496 -0.802734,0.914063 -2.208984,0.914063 -1.41211,0 -2.214844,-0.914063 -0.796875,-0.919921 -0.796875,-2.5312496 0,-1.6171875 0.796875,-2.53125 0.802734,-0.9140625 2.214844,-0.9140625 z" />
  <path
     id="path73"
     style="text-anchor:middle"
     d="m 48.996094,6.4453125 q -0.181641,-0.1054688 -0.398438,-0.1523438 -0.210937,-0.052734 -0.46875,-0.052734 -0.914062,0 -1.40625,0.5976562 -0.486328,0.5917969 -0.486328,1.7050782 l 0,3.4570312 -1.083984,0 0,-6.5625 1.083984,0 0,1.0195312 q 0.339844,-0.5976562 0.884766,-0.8847656 0.544922,-0.2929687 1.324218,-0.2929687 0.111329,0 0.246094,0.017578 0.134766,0.011719 0.298828,0.041016 l 0.0059,1.1074219 z" />
  <path
     id="path75"
     style="text-anchor:middle"
     d="m 55.494141,8.4492188 0,0.5273437 -4.957032,0 q 0.07031,1.1132815 0.667969,1.6992185 0.603516,0.580078 1.675781,0.580078 0.621094,0 1.201172,-0.152343 0.585938,-0.152344 1.160156,-0.457032 l 0,1.019532 q -0.580078,0.246093 -1.189453,0.375 -0.609375,0.128906 -1.236328,0.128906 -1.570312,0 -2.490234,-0.914063 -0.914063,-0.914062 -0.914063,-2.4726559 0,-1.6113281 0.867188,-2.5546875 0.873047,-0.9492187 2.349609,-0.9492187 1.324219,0 2.091797,0.8554687 0.773438,0.8496094 0.773438,2.3144532 z M 54.416016,8.1328125 Q 54.404297,7.2480469 53.917969,6.7207031 53.4375,6.1933594 52.640625,6.1933594 q -0.902344,0 -1.447266,0.5097656 -0.539062,0.5097656 -0.621093,1.4355469 l 3.84375,-0.00586 z" />
  <path
     id="path77"
     style="text-anchor:middle"
     d="m 62.314453,4.2246094 0,6.8027346 1.429688,0 q 1.810546,0 2.648437,-0.820313 0.84375,-0.8203122 0.84375,-2.5898435 0,-1.7578125 -0.84375,-2.5722656 -0.837891,-0.8203125 -2.648437,-0.8203125 l -1.429688,0 z m -1.183594,-0.9726563 2.431641,0 q 2.542969,0 3.732422,1.0605469 1.189453,1.0546875 1.189453,3.3046875 0,2.2617188 -1.195313,3.3222655 Q 66.09375,12 63.5625,12 l -2.431641,0 0,-8.7480469 z" />
  <path
     id="path79"
     style="text-anchor:middle"
     d="m 75.931641,8.4492188 0,0.5273437 -4.957032,0 q 0.07031,1.1132815 0.667969,1.6992185 0.603516,0.580078 1.675781,0.580078 0.621094,0 1.201172,-0.152343 0.585938,-0.152344 1.160156,-0.457032 l 0,1.019532 q -0.580078,0.246093 -1.189453,0.375 -0.609375,0.128906 -1.236328,0.128906 -1.570312,0 -2.490234,-0.914063 -0.914063,-0.914062 -0.914063,-2.4726559 0,-1.6113281 0.867188,-2.5546875 0.873047,-0.9492187 2.349609,-0.9492187 1.324219,0 2.091797,0.8554687 0.773438,0.8496094 0.773438,2.3144532 z M 74.853516,8.1328125 Q 74.841797,7.2480469 74.355469,6.7207031 73.875,6.1933594 73.078125,6.1933594 q -0.902344,0 -1.447266,0.5097656 -0.539062,0.5097656 -0.621093,1.4355469 l 3.84375,-0.00586 z" />
  <path
     id="path81"
     style="text-anchor:middle"
     d="M 82.810547,6.6972656 Q 83.214844,5.9707031 83.777344,5.625 q 0.5625,-0.3457031 1.324218,-0.3457031 1.025391,0 1.582032,0.7207031 0.55664,0.7148437 0.55664,2.0390625 l 0,3.9609375 -1.083984,0 0,-3.9257812 q 0,-0.9433594 -0.333984,-1.4003907 -0.333985,-0.4570312 -1.019532,-0.4570312 -0.83789,0 -1.324218,0.5566406 -0.486329,0.5566406 -0.486329,1.5175781 l 0,3.7089844 -1.083984,0 0,-3.9257812 q 0,-0.9492188 -0.333984,-1.4003907 -0.333985,-0.4570312 -1.03125,-0.4570312 -0.826172,0 -1.3125,0.5625 -0.486328,0.5566406 -0.486328,1.5117187 l 0,3.7089844 -1.083985,0 0,-6.5625 1.083985,0 0,1.0195312 q 0.36914,-0.6035156 0.884765,-0.890625 0.515625,-0.2871093 1.22461,-0.2871093 0.714843,0 1.21289,0.3632812 0.503906,0.3632813 0.744141,1.0546875 z" />
  <path
     id="path83"
     style="text-anchor:middle"
     d="m 91.939453,6.1933594 q -0.867187,0 -1.371094,0.6796875 -0.503906,0.6738281 -0.503906,1.8515625 0,1.1777344 0.498047,1.8574216 0.503906,0.673828 1.376953,0.673828 0.861328,0 1.365234,-0.679687 0.503907,-0.6796876 0.503907,-1.8515626 0,-1.1660157 -0.503907,-1.8457032 -0.503906,-0.6855468 -1.365234,-0.6855468 z m 0,-0.9140625 q 1.40625,0 2.208984,0.9140625 0.802735,0.9140625 0.802735,2.53125 0,1.6113286 -0.802735,2.5312496 -0.802734,0.914063 -2.208984,0.914063 -1.412109,0 -2.214844,-0.914063 -0.796875,-0.919921 -0.796875,-2.5312496 0,-1.6171875 0.796875,-2.53125 0.802735,-0.9140625 2.214844,-0.9140625 z" />
</g>
</g>
  <g
     style="fill:none;stroke:#ffffff;stroke-linecap:round"
     id="screen">
    <path
       id="line15"
       d="m 16,42.5 88,0"
       style="" />
    <path
       id="line17"
       d="m 16,72.5 88,0"
       style="" />
    <path
       id="line19"
       d="m 16,102.5 88,0"
       style="" />
    <path
       id="line21"
       d="m 16,132.5 88,0"
       style="" />
    <path
       id="line23"
       d="m 16,162.5 88,0"
       style="" />
    <path
       id="line25"
       d="m 16,192.5 88,0"
       style="" />
    <path
       id="line27"
       d="m 16,222.5 88,0"
       style="" />
    <path
       id="line29"
       d="m 16,252.5 88,0"
       style="" />
    <path
       id="line31"
       d="m 16,282.5 88,0"
       style="" />
    <path
       id="line33"
       d="m 16,312.5 88,0"
       style="" />
  </g>
  <g
     style="font-size:10px;font-family:'DejaVu Sans';fill:#ffffff;stroke:none"
     font-size="10"
     id="group1">
    <g
       id="text36"
       style="text-anchor:middle">
      <path
         id="path96"
         style="text-anchor:middle"
         d="m 11.766602,20.709961 0.986328,0 0,7.290039 -0.986328,0 0,-7.290039 z" />
      <path
         id="path98"
         style="text-anchor:middle"
         d="m 14.71582,20.709961 1.328125,0 3.232422,6.098633 0,-6.098633 0.957031,0 0,7.290039 -1.328125,0 -3.232421,-6.098633 0,6.098633 -0.957032,0 0,-7.290039 z" />
    </g>
    <g
       id="text38"
       style="text-anchor:middle">
      <path
         id="path101"
         style="text-anchor:middle"
         d="m 97.286133,21.378906 q -1.074219,0 -1.708985,0.800781 -0.629882,0.800782 -0.629882,2.182618 0,1.376953 0.629882,2.177734 0.634766,0.800781 1.708985,0.800781 1.074219,0 1.699219,-0.800781 0.629882,-0.800781 0.629882,-2.177734 0,-1.381836 -0.629882,-2.182618 -0.625,-0.800781 -1.699219,-0.800781 z m 0,-0.800781 q 1.533203,0 2.451172,1.030273 0.917965,1.025391 0.917965,2.753907 0,1.723632 -0.917965,2.753906 -0.917969,1.025391 -2.451172,1.025391 -1.538086,0 -2.460938,-1.025391 -0.917968,-1.025391 -0.917968,-2.753906 0,-1.728516 0.917968,-2.753907 0.922852,-1.030273 2.460938,-1.030273 z" />
      <path
         id="path103"
         style="text-anchor:middle"
         d="m 102.08594,20.709961 0.99121,0 0,4.428711 q 0,1.171875 0.4248,1.689453 0.42481,0.512695 1.37696,0.512695 0.94726,0 1.37207,-0.512695 0.4248,-0.517578 0.4248,-1.689453 l 0,-4.428711 0.99121,0 0,4.550781 q 0,1.425781 -0.70801,2.15332 -0.70312,0.72754 -2.08007,0.72754 -1.38184,0 -2.08985,-0.72754 -0.70312,-0.727539 -0.70312,-2.15332 l 0,-4.550781 z" />
      <path
         id="path105"
         style="text-anchor:middle"
         d="m 108.51172,20.709961 6.16699,0 0,0.830078 -2.58789,0 0,6.459961 -0.99121,0 0,-6.459961 -2.58789,0 0,-0.830078 z" />
    </g>
    <g
       id="text40"
       style="text-anchor:middle">
      <path
         id="path108"
         style="text-anchor:middle"
         d="m 31.09668,21.520508 0,5.668945 1.191406,0 q 1.508789,0 2.207031,-0.683594 0.703125,-0.683593 0.703125,-2.158203 0,-1.464844 -0.703125,-2.143554 -0.698242,-0.683594 -2.207031,-0.683594 l -1.191406,0 z m -0.986328,-0.810547 2.026367,0 q 2.11914,0 3.110351,0.883789 0.991211,0.878906 0.991211,2.753906 0,1.884766 -0.996094,2.768555 Q 34.246094,28 32.136719,28 l -2.026367,0 0,-7.290039 z" />
      <path
         id="path110"
         style="text-anchor:middle"
         d="m 40.066406,21.681641 -1.33789,3.627929 2.680664,0 -1.342774,-3.627929 z m -0.55664,-0.97168 1.118164,0 L 43.40625,28 l -1.025391,0 -0.664062,-1.870117 -3.286133,0 L 37.766602,28 l -1.04004,0 2.783204,-7.290039 z" />
      <path
         id="path112"
         style="text-anchor:middle"
         d="m 42.673828,20.709961 6.166992,0 0,0.830078 -2.58789,0 0,6.459961 -0.991211,0 0,-6.459961 -2.587891,0 0,-0.830078 z" />
      <path
         id="path114"
         style="text-anchor:middle"
         d="m 51.453125,21.681641 -1.337891,3.627929 2.680664,0 -1.342773,-3.627929 z m -0.556641,-0.97168 1.118164,0 L 54.792969,28 l -1.025391,0 -0.664062,-1.870117 -3.286133,0 L 49.15332,28 l -1.040039,0 2.783203,-7.290039 z" />
    </g>
    <g
       id="text42"
       style="text-anchor:middle">
      <path
         id="path117"
         style="text-anchor:middle"
         d="m 67.425781,20.949219 0,0.961914 q -0.561523,-0.268555 -1.05957,-0.400391 -0.498047,-0.131836 -0.961914,-0.131836 -0.805664,0 -1.245117,0.3125 -0.434571,0.3125 -0.434571,0.888672 0,0.483399 0.288086,0.732422 0.292969,0.244141 1.103516,0.395508 l 0.595703,0.12207 q 1.103516,0.209961 1.625977,0.742188 0.527343,0.527343 0.527343,1.416015 0,1.059571 -0.71289,1.606446 -0.708008,0.546875 -2.080078,0.546875 -0.517579,0 -1.103516,-0.117188 -0.581055,-0.117187 -1.206055,-0.34668 l 0,-1.015625 q 0.600586,0.336914 1.176758,0.507813 0.576172,0.170898 1.132813,0.170898 0.844726,0 1.303711,-0.332031 0.458984,-0.332031 0.458984,-0.947266 0,-0.537109 -0.332031,-0.839843 -0.327149,-0.302735 -1.079102,-0.454102 l -0.600586,-0.117187 q -1.103515,-0.219727 -1.59668,-0.688477 -0.493164,-0.46875 -0.493164,-1.303711 0,-0.966797 0.678711,-1.523437 0.683594,-0.556641 1.879883,-0.556641 0.512695,0 1.044922,0.09277 0.532227,0.09277 1.088867,0.278321 z" />
      <path
         id="path119"
         style="text-anchor:middle"
         d="m 69.40332,20.709961 4.609375,0 0,0.830078 -3.623047,0 0,2.158203 3.47168,0 0,0.830078 -3.47168,0 0,2.641602 3.710938,0 0,0.830078 -4.697266,0 0,-7.290039 z" />
      <path
         id="path121"
         style="text-anchor:middle"
         d="m 75.731445,20.709961 1.328125,0 3.232422,6.098633 0,-6.098633 0.957031,0 0,7.290039 -1.328125,0 -3.232421,-6.098633 0,6.098633 -0.957032,0 0,-7.290039 z" />
      <path
         id="path123"
         style="text-anchor:middle"
         d="m 84.198242,21.520508 0,5.668945 1.191406,0 q 1.508789,0 2.207032,-0.683594 0.703125,-0.683593 0.703125,-2.158203 0,-1.464844 -0.703125,-2.143554 -0.698243,-0.683594 -2.207032,-0.683594 l -1.191406,0 z m -0.986328,-0.810547 2.026367,0 q 2.119141,0 3.110352,0.883789 0.991211,0.878906 0.991211,2.753906 0,1.884766 -0.996094,2.768555 Q 87.347656,28 85.238281,28 l -2.026367,0 0,-7.290039 z" />
    </g>
  </g>
</svg>
