<?xml version="1.0" encoding="UTF-8" standalone="no"?>
<svg
   xmlns:dc="http://purl.org/dc/elements/1.1/"
   xmlns:cc="http://creativecommons.org/ns#"
   xmlns:rdf="http://www.w3.org/1999/02/22-rdf-syntax-ns#"
   xmlns:svg="http://www.w3.org/2000/svg"
   xmlns="http://www.w3.org/2000/svg"
   version="1.1"
   id="svg2"
   height="380px"
   width="120px">
  <metadata
     id="metadata54">
    <rdf:RDF>
      <cc:Work
         rdf:about="">
        <dc:format>image/svg+xml</dc:format>
        <dc:type
           rdf:resource="http://purl.org/dc/dcmitype/StillImage" />
      </cc:Work>
    </rdf:RDF>
  </metadata>
  <defs
     id="defs52" />
  <g
     id="background">
    <path
       id="rect4255"
       d="m 0,0 120,0 0,380 -120,0 z"
       style="fill:#333333;stroke:none" />
    <path
       id="path4656"
       d="M 0,380 0,0 120,0 119,1 1,1 1,379 Z"
       style="fill:#555555;fill-rule:nonzero;stroke:none" />
    <path
       id="path4658"
       d="m 0,380 120,0 0,-380 -1,1 0,378 -118,0 z"
       style="fill:#111111;fill-rule:nonzero;stroke:none" />
  </g>
  <g
     style="font-size:12px;font-family:'DejaVu Sans';fill:#777777"
     font-size="12"
     id="logo"><path
   id="path9"
   d="m 6,346 a 9,9 0 0 1 0,18 l 0,0 0,-6 a 3.6,3.6 0 0 0 0,-6 z m 12,0 87,0 a 9,9 0 0 1 0,18 l -87,0 a 9,9 0 0 1 0,-18 z m 3,9 a 24,24 0 0 0 18,0 24,24 0 0 0 -18,0 z" />

       id=&quot;path4136&quot;
       inkscape:connector-curvature=&quot;0&quot; /&gt;
    <g
   id="text4662"
   style="text-anchor:middle">
  <path
     id="path58"
     style="text-anchor:middle"
     d="m 36.199219,368.25195 7.40039,0 0,0.9961 -3.105468,0 0,7.75195 -1.189454,0 0,-7.75195 -3.105468,0 0,-0.9961 z" />
  <path
     id="path60"
     style="text-anchor:middle"
     d="m 45.205078,371.19336 q -0.867187,0 -1.371094,0.67969 -0.503906,0.67382 -0.503906,1.85156 0,1.17773 0.498047,1.85742 0.503906,0.67383 1.376953,0.67383 0.861328,0 1.365234,-0.67969 0.503907,-0.67969 0.503907,-1.85156 0,-1.16602 -0.503907,-1.8457 -0.503906,-0.68555 -1.365234,-0.68555 z m 0,-0.91406 q 1.40625,0 2.208984,0.91406 0.802735,0.91406 0.802735,2.53125 0,1.61133 -0.802735,2.53125 -0.802734,0.91406 -2.208984,0.91406 -1.412109,0 -2.214844,-0.91406 -0.796875,-0.91992 -0.796875,-2.53125 0,-1.61719 0.796875,-2.53125 0.802735,-0.91406 2.214844,-0.91406 z" />
  <path
     id="path62"
     style="text-anchor:middle"
     d="m 53.800781,371.44531 q -0.18164,-0.10547 -0.398437,-0.15234 -0.210938,-0.0527 -0.46875,-0.0527 -0.914063,0 -1.40625,0.59766 -0.486328,0.5918 -0.486328,1.70508 l 0,3.45703 -1.083985,0 0,-6.5625 1.083985,0 0,1.01953 q 0.339843,-0.59766 0.884765,-0.88476 0.544922,-0.29297 1.324219,-0.29297 0.111328,0 0.246094,0.0176 0.134765,0.0117 0.298828,0.041 l 0.0059,1.10742 z" />
  <path
     id="path64"
     style="text-anchor:middle"
     d="m 55.986328,376.01562 0,3.48047 -1.083984,0 0,-9.05859 1.083984,0 0,0.99609 q 0.339844,-0.58593 0.855469,-0.86718 0.521484,-0.28711 1.242187,-0.28711 1.195313,0 1.939453,0.94922 0.75,0.94921 0.75,2.49609 0,1.54687 -0.75,2.49609 -0.74414,0.94922 -1.939453,0.94922 -0.720703,0 -1.242187,-0.28125 -0.515625,-0.28711 -0.855469,-0.87305 z m 3.667969,-2.29101 q 0,-1.18945 -0.492188,-1.86328 -0.486328,-0.67969 -1.341797,-0.67969 -0.855468,0 -1.347656,0.67969 -0.486328,0.67383 -0.486328,1.86328 0,1.18945 0.486328,1.86914 0.492188,0.67383 1.347656,0.67383 0.855469,0 1.341797,-0.67383 0.492188,-0.67969 0.492188,-1.86914 z" />
  <path
     id="path66"
     style="text-anchor:middle"
     d="m 68.173828,373.44922 0,0.52734 -4.957031,0 q 0.07031,1.11328 0.667969,1.69922 0.603515,0.58008 1.675781,0.58008 0.621094,0 1.201172,-0.15234 0.585937,-0.15235 1.160156,-0.45704 l 0,1.01954 q -0.580078,0.24609 -1.189453,0.375 -0.609375,0.1289 -1.236328,0.1289 -1.570313,0 -2.490235,-0.91406 -0.914062,-0.91406 -0.914062,-2.47266 0,-1.61133 0.867187,-2.55468 0.873047,-0.94922 2.34961,-0.94922 1.324218,0 2.091797,0.85547 0.773437,0.8496 0.773437,2.31445 z m -1.078125,-0.31641 q -0.01172,-0.88476 -0.498047,-1.41211 -0.480469,-0.52734 -1.277344,-0.52734 -0.902343,0 -1.447265,0.50976 -0.539063,0.50977 -0.621094,1.43555 l 3.84375,-0.006 z" />
  <path
     id="path68"
     style="text-anchor:middle"
     d="m 74.261719,371.43359 0,-3.55078 1.078125,0 0,9.11719 -1.078125,0 0,-0.98438 q -0.339844,0.58594 -0.861328,0.87305 -0.515625,0.28125 -1.242188,0.28125 -1.189453,0 -1.939453,-0.94922 -0.744141,-0.94922 -0.744141,-2.49609 0,-1.54688 0.744141,-2.49609 0.75,-0.94922 1.939453,-0.94922 0.726563,0 1.242188,0.28711 0.521484,0.28125 0.861328,0.86718 z m -3.673828,2.29102 q 0,1.18945 0.486328,1.86914 0.492187,0.67383 1.347656,0.67383 0.855469,0 1.347656,-0.67383 0.492188,-0.67969 0.492188,-1.86914 0,-1.18945 -0.492188,-1.86328 -0.492187,-0.67969 -1.347656,-0.67969 -0.855469,0 -1.347656,0.67969 -0.486328,0.67383 -0.486328,1.86328 z" />
  <path
     id="path70"
     style="text-anchor:middle"
     d="m 80.103516,371.19336 q -0.867188,0 -1.371094,0.67969 -0.503906,0.67382 -0.503906,1.85156 0,1.17773 0.498046,1.85742 0.503907,0.67383 1.376954,0.67383 0.861328,0 1.365234,-0.67969 0.503906,-0.67969 0.503906,-1.85156 0,-1.16602 -0.503906,-1.8457 -0.503906,-0.68555 -1.365234,-0.68555 z m 0,-0.91406 q 1.40625,0 2.208984,0.91406 0.802734,0.91406 0.802734,2.53125 0,1.61133 -0.802734,2.53125 -0.802734,0.91406 -2.208984,0.91406 -1.41211,0 -2.214844,-0.91406 -0.796875,-0.91992 -0.796875,-2.53125 0,-1.61719 0.796875,-2.53125 0.802734,-0.91406 2.214844,-0.91406 z" />
</g>
<g
   id="text12"
   style="text-anchor:middle">
  <path
     id="path73"
     style="text-anchor:middle"
     d="m 30.820312,3.5390625 0,1.1542969 Q 30.146484,4.3710937 29.548828,4.2128906 28.951172,4.0546875 28.394531,4.0546875 q -0.966797,0 -1.49414,0.375 -0.521485,0.375 -0.521485,1.0664062 0,0.5800782 0.345703,0.8789063 0.351563,0.2929687 1.324219,0.4746094 l 0.714844,0.1464843 q 1.324219,0.2519532 1.951172,0.890625 0.632812,0.6328126 0.632812,1.6992188 0,1.2714845 -0.855469,1.9277345 -0.849609,0.65625 -2.496093,0.65625 -0.621094,0 -1.324219,-0.140625 -0.697266,-0.140625 -1.447266,-0.416016 l 0,-1.21875 q 0.720703,0.404297 1.41211,0.609375 0.691406,0.205078 1.359375,0.205078 1.013672,0 1.564453,-0.398437 0.550781,-0.398438 0.550781,-1.1367189 0,-0.6445312 -0.398437,-1.0078125 Q 29.320312,8.3027344 28.417969,8.1210938 L 27.697266,7.9804687 Q 26.373047,7.7167969 25.78125,7.1542969 q -0.591797,-0.5625 -0.591797,-1.5644532 0,-1.1601562 0.814453,-1.8281249 0.820313,-0.6679688 2.25586,-0.6679688 0.615234,0 1.253906,0.1113281 0.638672,0.1113282 1.30664,0.3339844 z" />
  <path
     id="path75"
     style="text-anchor:middle"
     d="m 34.212891,3.5742188 0,1.8632812 2.220703,0 0,0.8378906 -2.220703,0 0,3.5625 q 0,0.8027344 0.216796,1.0312504 0.222657,0.228515 0.896485,0.228515 l 1.107422,0 0,0.902344 -1.107422,0 q -1.248047,0 -1.722656,-0.462891 -0.47461,-0.46875 -0.47461,-1.6992184 l 0,-3.5625 -0.791015,0 0,-0.8378906 0.791015,0 0,-1.8632812 1.083985,0 z" />
  <path
     id="path77"
     style="text-anchor:middle"
     d="m 40.400391,6.1933594 q -0.867188,0 -1.371094,0.6796875 -0.503906,0.6738281 -0.503906,1.8515625 0,1.1777344 0.498046,1.8574216 0.503907,0.673828 1.376954,0.673828 0.861328,0 1.365234,-0.679687 0.503906,-0.6796876 0.503906,-1.8515626 0,-1.1660157 -0.503906,-1.8457032 -0.503906,-0.6855468 -1.365234,-0.6855468 z m 0,-0.9140625 q 1.40625,0 2.208984,0.9140625 0.802734,0.9140625 0.802734,2.53125 0,1.6113286 -0.802734,2.5312496 -0.802734,0.914063 -2.208984,0.914063 -1.41211,0 -2.214844,-0.914063 -0.796875,-0.919921 -0.796875,-2.5312496 0,-1.6171875 0.796875,-2.53125 0.802734,-0.9140625 2.214844,-0.9140625 z" />
  <path
     id="path79"
     style="text-anchor:middle"
     d="m 48.996094,6.4453125 q -0.181641,-0.1054688 -0.398438,-0.1523438 -0.210937,-0.052734 -0.46875,-0.052734 -0.914062,0 -1.40625,0.5976562 -0.486328,0.5917969 -0.486328,1.7050782 l 0,3.4570312 -1.083984,0 0,-6.5625 1.083984,0 0,1.0195312 q 0.339844,-0.5976562 0.884766,-0.8847656 0.544922,-0.2929687 1.324218,-0.2929687 0.111329,0 0.246094,0.017578 0.134766,0.011719 0.298828,0.041016 l 0.0059,1.1074219 z" />
  <path
     id="path81"
     style="text-anchor:middle"
     d="m 55.494141,8.4492188 0,0.5273437 -4.957032,0 q 0.07031,1.1132815 0.667969,1.6992185 0.603516,0.580078 1.675781,0.580078 0.621094,0 1.201172,-0.152343 0.585938,-0.152344 1.160156,-0.457032 l 0,1.019532 q -0.580078,0.246093 -1.189453,0.375 -0.609375,0.128906 -1.236328,0.128906 -1.570312,0 -2.490234,-0.914063 -0.914063,-0.914062 -0.914063,-2.4726559 0,-1.6113281 0.867188,-2.5546875 0.873047,-0.9492187 2.349609,-0.9492187 1.324219,0 2.091797,0.8554687 0.773438,0.8496094 0.773438,2.3144532 z M 54.416016,8.1328125 Q 54.404297,7.2480469 53.917969,6.7207031 53.4375,6.1933594 52.640625,6.1933594 q -0.902344,0 -1.447266,0.5097656 -0.539062,0.5097656 -0.621093,1.4355469 l 3.84375,-0.00586 z" />
  <path
     id="path83"
     style="text-anchor:middle"
     d="m 62.314453,4.2246094 0,6.8027346 1.429688,0 q 1.810546,0 2.648437,-0.820313 0.84375,-0.8203122 0.84375,-2.5898435 0,-1.7578125 -0.84375,-2.5722656 -0.837891,-0.8203125 -2.648437,-0.8203125 l -1.429688,0 z m -1.183594,-0.9726563 2.431641,0 q 2.542969,0 3.732422,1.0605469 1.189453,1.0546875 1.189453,3.3046875 0,2.2617188 -1.195313,3.3222655 Q 66.09375,12 63.5625,12 l -2.431641,0 0,-8.7480469 z" />
  <path
     id="path85"
     style="text-anchor:middle"
     d="m 75.931641,8.4492188 0,0.5273437 -4.957032,0 q 0.07031,1.1132815 0.667969,1.6992185 0.603516,0.580078 1.675781,0.580078 0.621094,0 1.201172,-0.152343 0.585938,-0.152344 1.160156,-0.457032 l 0,1.019532 q -0.580078,0.246093 -1.189453,0.375 -0.609375,0.128906 -1.236328,0.128906 -1.570312,0 -2.490234,-0.914063 -0.914063,-0.914062 -0.914063,-2.4726559 0,-1.6113281 0.867188,-2.5546875 0.873047,-0.9492187 2.349609,-0.9492187 1.324219,0 2.091797,0.8554687 0.773438,0.8496094 0.773438,2.3144532 z M 74.853516,8.1328125 Q 74.841797,7.2480469 74.355469,6.7207031 73.875,6.1933594 73.078125,6.1933594 q -0.902344,0 -1.447266,0.5097656 -0.539062,0.5097656 -0.621093,1.4355469 l 3.84375,-0.00586 z" />
  <path
     id="path87"
     style="text-anchor:middle"
     d="M 82.810547,6.6972656 Q 83.214844,5.9707031 83.777344,5.625 q 0.5625,-0.3457031 1.324218,-0.3457031 1.025391,0 1.582032,0.7207031 0.55664,0.7148437 0.55664,2.0390625 l 0,3.9609375 -1.083984,0 0,-3.9257812 q 0,-0.9433594 -0.333984,-1.4003907 -0.333985,-0.4570312 -1.019532,-0.4570312 -0.83789,0 -1.324218,0.5566406 -0.486329,0.5566406 -0.486329,1.5175781 l 0,3.7089844 -1.083984,0 0,-3.9257812 q 0,-0.9492188 -0.333984,-1.4003907 -0.333985,-0.4570312 -1.03125,-0.4570312 -0.826172,0 -1.3125,0.5625 -0.486328,0.5566406 -0.486328,1.5117187 l 0,3.7089844 -1.083985,0 0,-6.5625 1.083985,0 0,1.0195312 q 0.36914,-0.6035156 0.884765,-0.890625 0.515625,-0.2871093 1.22461,-0.2871093 0.714843,0 1.21289,0.3632812 0.503906,0.3632813 0.744141,1.0546875 z" />
  <path
     id="path89"
     style="text-anchor:middle"
     d="m 91.939453,6.1933594 q -0.867187,0 -1.371094,0.6796875 -0.503906,0.6738281 -0.503906,1.8515625 0,1.1777344 0.498047,1.8574216 0.503906,0.673828 1.376953,0.673828 0.861328,0 1.365234,-0.679687 0.503907,-0.6796876 0.503907,-1.8515626 0,-1.1660157 -0.503907,-1.8457032 -0.503906,-0.6855468 -1.365234,-0.6855468 z m 0,-0.9140625 q 1.40625,0 2.208984,0.9140625 0.802735,0.9140625 0.802735,2.53125 0,1.6113286 -0.802735,2.5312496 -0.802734,0.914063 -2.208984,0.914063 -1.412109,0 -2.214844,-0.914063 -0.796875,-0.919921 -0.796875,-2.5312496 0,-1.6171875 0.796875,-2.53125 0.802735,-0.9140625 2.214844,-0.9140625 z" />
</g>
</g>
  <g
     style="fill:none;stroke:#ffffff;stroke-linecap:round"
     id="screen">
    <path
       id="line15"
       d="m 16,42.5 88,0"
       style="" />
    <path
       id="line17"
       d="m 16,72.5 88,0"
       style="" />
    <path
       id="line19"
       d="m 16,102.5 88,0"
       style="" />
    <path
       id="line21"
       d="m 16,132.5 88,0"
       style="" />
    <path
       id="line23"
       d="m 16,162.5 88,0"
       style="" />
    <path
       id="line25"
       d="m 16,192.5 88,0"
       style="" />
    <path
       id="line27"
       d="m 16,222.5 88,0"
       style="" />
    <path
       id="line29"
       d="m 16,252.5 88,0"
       style="" />
    <path
       id="line31"
       d="m 16,282.5 88,0"
       style="" />
    <path
       id="line33"
       d="m 16,312.5 88,0"
       style="" />
  </g>
  <g
     style="font-size:10px;font-family:'DejaVu Sans';fill:#ffffff;stroke:none"
     font-size="10"
     id="group1">
    <g
       id="text36"
       style="text-anchor:middle">
      <path
         id="path102"
         style="text-anchor:middle"
         d="m 11.766602,52.709961 0.986328,0 0,7.290039 -0.986328,0 0,-7.290039 z" />
      <path
         id="path104"
         style="text-anchor:middle"
         d="m 14.71582,52.709961 1.328125,0 3.232422,6.098633 0,-6.098633 0.957031,0 0,7.290039 -1.328125,0 -3.232421,-6.098633 0,6.098633 -0.957032,0 0,-7.290039 z" />
    </g>
    <g
       id="text38"
       style="text-anchor:middle">
      <path
         id="path107"
         style="text-anchor:middle"
         d="m 97.286133,53.378906 q -1.074219,0 -1.708985,0.800781 -0.629882,0.800782 -0.629882,2.182618 0,1.376953 0.629882,2.177734 0.634766,0.800781 1.708985,0.800781 1.074219,0 1.699219,-0.800781 0.629882,-0.800781 0.629882,-2.177734 0,-1.381836 -0.629882,-2.182618 -0.625,-0.800781 -1.699219,-0.800781 z m 0,-0.800781 q 1.533203,0 2.451172,1.030273 0.917965,1.025391 0.917965,2.753907 0,1.723632 -0.917965,2.753906 -0.917969,1.025391 -2.451172,1.025391 -1.538086,0 -2.460938,-1.025391 -0.917968,-1.025391 -0.917968,-2.753906 0,-1.728516 0.917968,-2.753907 0.922852,-1.030273 2.460938,-1.030273 z" />
      <path
         id="path109"
         style="text-anchor:middle"
         d="m 102.08594,52.709961 0.99121,0 0,4.428711 q 0,1.171875 0.4248,1.689453 0.42481,0.512695 1.37696,0.512695 0.94726,0 1.37207,-0.512695 0.4248,-0.517578 0.4248,-1.689453 l 0,-4.428711 0.99121,0 0,4.550781 q 0,1.425781 -0.70801,2.15332 -0.70312,0.72754 -2.08007,0.72754 -1.38184,0 -2.08985,-0.72754 -0.70312,-0.727539 -0.70312,-2.15332 l 0,-4.550781 z" />
      <path
         id="path111"
         style="text-anchor:middle"
         d="m 108.51172,52.709961 6.16699,0 0,0.830078 -2.58789,0 0,6.459961 -0.99121,0 0,-6.459961 -2.58789,0 0,-0.830078 z" />
    </g>
    <g
       id="text40"
       style="text-anchor:middle">
      <path
         id="path114"
         style="text-anchor:middle"
         d="m 69.425781,42.949219 0,0.961914 q -0.561523,-0.268555 -1.05957,-0.400391 -0.498047,-0.131836 -0.961914,-0.131836 -0.805664,0 -1.245117,0.3125 -0.434571,0.3125 -0.434571,0.888672 0,0.483399 0.288086,0.732422 0.292969,0.244141 1.103516,0.395508 l 0.595703,0.12207 q 1.103516,0.209961 1.625977,0.742188 0.527343,0.527343 0.527343,1.416015 0,1.059571 -0.71289,1.606446 -0.708008,0.546875 -2.080078,0.546875 -0.517579,0 -1.103516,-0.117188 -0.581055,-0.117187 -1.206055,-0.34668 l 0,-1.015625 q 0.600586,0.336914 1.176758,0.507813 0.576172,0.170898 1.132813,0.170898 0.844726,0 1.303711,-0.332031 0.458984,-0.332031 0.458984,-0.947266 0,-0.537109 -0.332031,-0.839843 -0.327149,-0.302735 -1.079102,-0.454102 l -0.600586,-0.117187 q -1.103515,-0.219727 -1.59668,-0.688477 -0.493164,-0.46875 -0.493164,-1.303711 0,-0.966797 0.678711,-1.523437 0.683594,-0.556641 1.879883,-0.556641 0.512695,0 1.044922,0.09277 0.532227,0.09277 1.088867,0.278321 z" />
      <path
         id="path116"
         style="text-anchor:middle"
         d="m 71.40332,42.709961 4.609375,0 0,0.830078 -3.623047,0 0,2.158203 3.47168,0 0,0.830078 -3.47168,0 0,2.641602 3.710938,0 0,0.830078 -4.697266,0 0,-7.290039 z" />
      <path
         id="path118"
         style="text-anchor:middle"
         d="m 77.731445,42.709961 1.328125,0 3.232422,6.098633 0,-6.098633 0.957031,0 0,7.290039 -1.328125,0 -3.232421,-6.098633 0,6.098633 -0.957032,0 0,-7.290039 z" />
      <path
         id="path120"
         style="text-anchor:middle"
         d="m 86.198242,43.520508 0,5.668945 1.191406,0 q 1.508789,0 2.207032,-0.683594 0.703125,-0.683593 0.703125,-2.158203 0,-1.464844 -0.703125,-2.143554 -0.698243,-0.683594 -2.207032,-0.683594 l -1.191406,0 z m -0.986328,-0.810547 2.026367,0 q 2.119141,0 3.110352,0.883789 0.991211,0.878906 0.991211,2.753906 0,1.884766 -0.996094,2.768555 Q 89.347656,50 87.238281,50 l -2.026367,0 0,-7.290039 z" />
    </g>
    <g
       id="text42"
       style="text-anchor:middle">
      <path
         id="path123"
         style="text-anchor:middle"
         d="m 19.342773,178.27148 0,1.04004 q -0.498046,-0.46386 -1.064453,-0.69336 -0.561523,-0.22949 -1.196289,-0.22949 -1.25,0 -1.914062,0.7666 -0.664063,0.76172 -0.664063,2.20703 0,1.44043 0.664063,2.20704 0.664062,0.76171 1.914062,0.76171 0.634766,0 1.196289,-0.22949 0.566407,-0.22949 1.064453,-0.69336 l 0,1.03028 q -0.517578,0.35156 -1.098632,0.52734 -0.576172,0.17578 -1.220704,0.17578 -1.655273,0 -2.607421,-1.01074 -0.952149,-1.01563 -0.952149,-2.76856 0,-1.75781 0.952149,-2.76855 0.952148,-1.01563 2.607421,-1.01563 0.654297,0 1.230469,0.17579 0.581055,0.17089 1.088867,0.51757 z" />
      <path
         id="path125"
         style="text-anchor:middle"
         d="m 22.755859,185 -2.783203,-7.29004 1.030274,0 2.30957,6.1377 2.314453,-6.1377 1.025391,0 -2.778321,7.29004 -1.118164,0 z" />
      <path
         id="path127"
         style="text-anchor:middle"
         d="m 27.970703,184.16992 1.611328,0 0,-5.56152 -1.752929,0.35156 0,-0.89844 1.743164,-0.35156 0.986328,0 0,6.45996 1.611328,0 0,0.83008 -4.199219,0 0,-0.83008 z" />
    </g>
    <g
       id="text44"
       style="text-anchor:middle">
      <path
         id="path130"
         style="text-anchor:middle"
         d="m 93.342773,178.27148 0,1.04004 q -0.498046,-0.46386 -1.064453,-0.69336 -0.561523,-0.22949 -1.196289,-0.22949 -1.25,0 -1.914062,0.7666 -0.664063,0.76172 -0.664063,2.20703 0,1.44043 0.664063,2.20704 0.664062,0.76171 1.914062,0.76171 0.634766,0 1.196289,-0.22949 0.566407,-0.22949 1.064453,-0.69336 l 0,1.03028 q -0.517578,0.35156 -1.098632,0.52734 -0.576172,0.17578 -1.220704,0.17578 -1.655273,0 -2.607421,-1.01074 -0.952149,-1.01563 -0.952149,-2.76856 0,-1.75781 0.952149,-2.76855 0.952148,-1.01563 2.607421,-1.01563 0.654297,0 1.230469,0.17579 0.581055,0.17089 1.088867,0.51757 z" />
      <path
         id="path132"
         style="text-anchor:middle"
         d="m 96.755859,185 -2.783203,-7.29004 1.030274,0 2.30957,6.1377 2.314453,-6.1377 1.025387,0 -2.778317,7.29004 -1.118164,0 z" />
      <path
         id="path134"
         style="text-anchor:middle"
         d="m 102.64941,184.16992 3.44239,0 0,0.83008 -4.62891,0 0,-0.83008 q 0.56152,-0.58105 1.52832,-1.55762 0.97168,-0.98144 1.2207,-1.26464 0.47364,-0.53223 0.65918,-0.89844 0.19043,-0.3711 0.19043,-0.72754 0,-0.58106 -0.41015,-0.94727 -0.40528,-0.36621 -1.05957,-0.36621 -0.46387,0 -0.98145,0.16114 -0.51269,0.16113 -1.09863,0.48828 l 0,-0.9961 q 0.5957,-0.23925 1.11328,-0.36132 0.51758,-0.12208 0.94727,-0.12208 1.13281,0 1.80664,0.56641 0.67382,0.56641 0.67382,1.51367 0,0.44922 -0.17089,0.8545 -0.16602,0.40039 -0.61036,0.94726 -0.12207,0.1416 -0.77636,0.82031 -0.6543,0.67383 -1.84571,1.88965 z" />
    </g>
    <g
       id="text46"
       style="text-anchor:middle">
      <path
         id="path137"
         style="text-anchor:middle"
         d="m 23.754883,323.37891 q -1.074219,0 -1.708985,0.80078 -0.629882,0.80078 -0.629882,2.18261 0,1.37696 0.629882,2.17774 0.634766,0.80078 1.708985,0.80078 1.074219,0 1.699219,-0.80078 0.629882,-0.80078 0.629882,-2.17774 0,-1.38183 -0.629882,-2.18261 -0.625,-0.80078 -1.699219,-0.80078 z m 0,-0.80079 q 1.533203,0 2.451172,1.03028 0.917968,1.02539 0.917968,2.7539 0,1.72364 -0.917968,2.75391 -0.917969,1.02539 -2.451172,1.02539 -1.538086,0 -2.460938,-1.02539 -0.917968,-1.02539 -0.917968,-2.75391 0,-1.72851 0.917968,-2.7539 0.922852,-1.03028 2.460938,-1.03028 z" />
      <path
         id="path139"
         style="text-anchor:middle"
         d="m 31.625977,323.37891 q -1.074219,0 -1.708985,0.80078 -0.629883,0.80078 -0.629883,2.18261 0,1.37696 0.629883,2.17774 0.634766,0.80078 1.708985,0.80078 1.074218,0 1.699218,-0.80078 0.629883,-0.80078 0.629883,-2.17774 0,-1.38183 -0.629883,-2.18261 -0.625,-0.80078 -1.699218,-0.80078 z m 0,-0.80079 q 1.533203,0 2.451171,1.03028 0.917969,1.02539 0.917969,2.7539 0,1.72364 -0.917969,2.75391 -0.917968,1.02539 -2.451171,1.02539 -1.538086,0 -2.460938,-1.02539 -0.917969,-1.02539 -0.917969,-2.75391 0,-1.72851 0.917969,-2.7539 0.922852,-1.03028 2.460938,-1.03028 z" />
      <path
         id="path141"
         style="text-anchor:middle"
         d="m 39.49707,323.37891 q -1.074218,0 -1.708984,0.80078 -0.629883,0.80078 -0.629883,2.18261 0,1.37696 0.629883,2.17774 0.634766,0.80078 1.708984,0.80078 1.074219,0 1.699219,-0.80078 0.629883,-0.80078 0.629883,-2.17774 0,-1.38183 -0.629883,-2.18261 -0.625,-0.80078 -1.699219,-0.80078 z m 0,-0.80079 q 1.533203,0 2.451172,1.03028 0.917969,1.02539 0.917969,2.7539 0,1.72364 -0.917969,2.75391 -0.917969,1.02539 -2.451172,1.02539 -1.538086,0 -2.460937,-1.02539 -0.917969,-1.02539 -0.917969,-2.75391 0,-1.72851 0.917969,-2.7539 0.922851,-1.03028 2.460937,-1.03028 z" />
      <path
         id="path143"
         style="text-anchor:middle"
         d="m 44.40918,322.70996 0.986328,0 0,2.98828 3.583984,0 0,-2.98828 0.986328,0 0,7.29004 -0.986328,0 0,-3.47168 -3.583984,0 0,3.47168 -0.986328,0 0,-7.29004 z" />
      <path
         id="path145"
         style="text-anchor:middle"
         d="m 52.119141,328.75977 1.030273,0 0,0.83984 -0.800781,1.5625 -0.629883,0 0.400391,-1.5625 0,-0.83984 z" />
      <path
         id="path147"
         style="text-anchor:middle"
         d="m 58.295898,322.70996 0.986329,0 0,6.45996 3.549804,0 0,0.83008 -4.536133,0 0,-7.29004 z" />
      <path
         id="path149"
         style="text-anchor:middle"
         d="m 66.469727,323.37891 q -1.074219,0 -1.708985,0.80078 -0.629883,0.80078 -0.629883,2.18261 0,1.37696 0.629883,2.17774 0.634766,0.80078 1.708985,0.80078 1.074218,0 1.699218,-0.80078 0.629883,-0.80078 0.629883,-2.17774 0,-1.38183 -0.629883,-2.18261 -0.625,-0.80078 -1.699218,-0.80078 z m 0,-0.80079 q 1.533203,0 2.451171,1.03028 0.917969,1.02539 0.917969,2.7539 0,1.72364 -0.917969,2.75391 -0.917968,1.02539 -2.451171,1.02539 -1.538086,0 -2.460938,-1.02539 -0.917969,-1.02539 -0.917969,-2.75391 0,-1.72851 0.917969,-2.7539 0.922852,-1.03028 2.460938,-1.03028 z" />
      <path
         id="path151"
         style="text-anchor:middle"
         d="m 74.34082,323.37891 q -1.074218,0 -1.708984,0.80078 -0.629883,0.80078 -0.629883,2.18261 0,1.37696 0.629883,2.17774 0.634766,0.80078 1.708984,0.80078 1.074219,0 1.699219,-0.80078 0.629883,-0.80078 0.629883,-2.17774 0,-1.38183 -0.629883,-2.18261 -0.625,-0.80078 -1.699219,-0.80078 z m 0,-0.80079 q 1.533203,0 2.451172,1.03028 0.917969,1.02539 0.917969,2.7539 0,1.72364 -0.917969,2.75391 -0.917969,1.02539 -2.451172,1.02539 -1.538086,0 -2.460937,-1.02539 -0.917969,-1.02539 -0.917969,-2.75391 0,-1.72851 0.917969,-2.7539 0.922851,-1.03028 2.460937,-1.03028 z" />
      <path
         id="path153"
         style="text-anchor:middle"
         d="m 79.25293,322.70996 0.986328,0 0,3.08106 3.271484,-3.08106 1.269531,0 -3.618164,3.39844 3.876953,3.8916 -1.298828,0 -3.500976,-3.51074 0,3.51074 -0.986328,0 0,-7.29004 z" />
      <path
         id="path155"
         style="text-anchor:middle"
         d="m 91.435547,323.68164 -1.337891,3.62793 2.680664,0 -1.342773,-3.62793 z m -0.556641,-0.97168 1.118164,0 L 94.775391,330 93.75,330 l -0.664063,-1.87012 -3.286132,0 -0.664063,1.87012 -1.040039,0 2.783203,-7.29004 z" />
      <path
         id="path157"
         style="text-anchor:middle"
         d="m 94.042969,322.70996 6.166991,0 0,0.83008 -2.58789,0 0,6.45996 -0.991211,0 0,-6.45996 -2.58789,0 0,-0.83008 z" />
    </g>
    <g
       id="text48"
       style="text-anchor:middle">
      <path
         id="path160"
         style="text-anchor:middle"
         d="m 13.115234,332.70996 6.166993,0 0,0.83008 -2.587891,0 0,6.45996 -0.991211,0 0,-6.45996 -2.587891,0 0,-0.83008 z" />
      <path
         id="path162"
         style="text-anchor:middle"
         d="m 20.239258,332.70996 0.986328,0 0,2.98828 3.583984,0 0,-2.98828 0.986328,0 0,7.29004 -0.986328,0 0,-3.47168 -3.583984,0 0,3.47168 -0.986328,0 0,-7.29004 z" />
      <path
         id="path164"
         style="text-anchor:middle"
         d="m 27.758789,332.70996 4.609375,0 0,0.83008 -3.623047,0 0,2.1582 3.47168,0 0,0.83008 -3.47168,0 0,2.6416 3.710938,0 0,0.83008 -4.697266,0 0,-7.29004 z" />
      <path
         id="path166"
         style="text-anchor:middle"
         d="m 38.256836,333.52051 0,2.73926 1.240234,0 q 0.688477,0 1.064453,-0.35645 0.375977,-0.35645 0.375977,-1.01562 0,-0.6543 -0.375977,-1.01075 -0.375976,-0.35644 -1.064453,-0.35644 l -1.240234,0 z m -0.986328,-0.81055 2.226562,0 q 1.225586,0 1.850586,0.55664 0.629883,0.55176 0.629883,1.6211 0,1.0791 -0.629883,1.63085 -0.625,0.55176 -1.850586,0.55176 l -1.240234,0 0,2.92969 -0.986328,0 0,-7.29004 z" />
      <path
         id="path168"
         style="text-anchor:middle"
         d="m 46.762695,336.58203 q 0.317383,0.10742 0.615235,0.45899 0.302734,0.35156 0.605468,0.96679 L 48.984375,340 l -1.05957,0 -0.932618,-1.87012 q -0.361328,-0.73242 -0.703125,-0.97168 -0.336914,-0.23925 -0.922851,-0.23925 l -1.074219,0 0,3.08105 -0.986328,0 0,-7.29004 2.226563,0 q 1.25,0 1.865234,0.52246 0.615234,0.52246 0.615234,1.57715 0,0.68848 -0.322265,1.14258 -0.317383,0.4541 -0.927735,0.62988 z m -2.470703,-3.06152 0,2.58789 1.240235,0 q 0.71289,0 1.074218,-0.32715 0.366211,-0.33203 0.366211,-0.97168 0,-0.63965 -0.366211,-0.96191 -0.361328,-0.32715 -1.074218,-0.32715 l -1.240235,0 z" />
      <path
         id="path170"
         style="text-anchor:middle"
         d="m 50.258789,332.70996 4.609375,0 0,0.83008 -3.623047,0 0,2.1582 3.47168,0 0,0.83008 -3.47168,0 0,2.6416 3.710938,0 0,0.83008 -4.697266,0 0,-7.29004 z" />
      <path
         id="path172"
         style="text-anchor:middle"
         d="m 55.576172,332.70996 6.166992,0 0,0.83008 -2.587891,0 0,6.45996 -0.991211,0 0,-6.45996 -2.58789,0 0,-0.83008 z" />
      <path
         id="path174"
         style="text-anchor:middle"
         d="m 61.513672,332.70996 6.166992,0 0,0.83008 -2.587891,0 0,6.45996 -0.991211,0 0,-6.45996 -2.58789,0 0,-0.83008 z" />
      <path
         id="path176"
         style="text-anchor:middle"
         d="m 67.636719,332.70996 1.05957,0 2.021484,2.99805 2.006836,-2.99805 1.059571,0 -2.578125,3.81836 0,3.47168 -0.991211,0 0,-3.47168 -2.578125,-3.81836 z" />
      <path
         id="path178"
         style="text-anchor:middle"
         d="m 77.93457,332.70996 0.986328,0 0,6.45996 3.549805,0 0,0.83008 -4.536133,0 0,-7.29004 z" />
      <path
         id="path180"
         style="text-anchor:middle"
         d="m 83.500977,332.70996 0.986328,0 0,7.29004 -0.986328,0 0,-7.29004 z" />
      <path
         id="path182"
         style="text-anchor:middle"
         d="m 91.420898,338.95996 0,-1.95801 -1.611328,0 0,-0.81054 2.587891,0 0,3.12988 q -0.571289,0.40527 -1.259766,0.61523 -0.688476,0.20508 -1.469726,0.20508 -1.708985,0 -2.675782,-0.99609 -0.961914,-1.00098 -0.961914,-2.78321 0,-1.7871 0.961914,-2.7832 0.966797,-1.00098 2.675782,-1.00098 0.71289,0 1.352539,0.17579 0.644531,0.17578 1.186523,0.51757 l 0,1.04981 q -0.546875,-0.46387 -1.162109,-0.69824 -0.615235,-0.23438 -1.293945,-0.23438 -1.337891,0 -2.011719,0.74707 -0.668946,0.74707 -0.668946,2.22656 0,1.47461 0.668946,2.22168 0.673828,0.74707 2.011719,0.74707 0.52246,0 0.932617,-0.0879 0.410156,-0.0928 0.737304,-0.2832 z" />
      <path
         id="path184"
         style="text-anchor:middle"
         d="m 94.204102,332.70996 0.986328,0 0,2.98828 3.583984,0 0,-2.98828 0.986328,0 0,7.29004 -0.986328,0 0,-3.47168 -3.583984,0 0,3.47168 -0.986328,0 0,-7.29004 z" />
      <path
         id="path186"
         style="text-anchor:middle"
         d="m 100.71289,332.70996 6.16699,0 0,0.83008 -2.58789,0 0,6.45996 -0.99121,0 0,-6.45996 -2.58789,0 0,-0.83008 z" />
    </g>
  </g>
</svg>
